<svg width="84" height="84" viewBox="0 0 84 84" fill="none" xmlns="http://www.w3.org/2000/svg">
<path d="M15.9995 65.9555C18.1287 65.9555 19.8548 64.2029 19.8548 62.041C19.8548 59.8791 18.1287 58.1265 15.9995 58.1265C13.8702 58.1265 12.1441 59.8791 12.1441 62.041C12.1441 64.2029 13.8702 65.9555 15.9995 65.9555Z" fill="#BEBEBE"/>
<path fill-rule="evenodd" clip-rule="evenodd" d="M31.6068 71.4499C31.6068 75.2505 28.5759 78.3279 24.8328 78.3279H7.16228C3.41916 78.3279 0.388275 75.2505 0.388275 71.4499V32.3596C0.388275 28.5591 3.41916 25.4817 7.16228 25.4817H24.8328C28.5759 25.4817 31.6068 28.5591 31.6068 32.3596V71.4499ZM25.8005 71.4499V32.3596C25.8005 31.8133 25.3669 31.3771 24.8328 31.3771H7.16228C6.6281 31.3771 6.19457 31.8133 6.19457 32.3596V71.4499C6.19457 71.9923 6.6281 72.4325 7.16228 72.4325H24.8328C25.3669 72.4325 25.8005 71.9923 25.8005 71.4499Z" fill="#BEBEBE"/>
<path fill-rule="evenodd" clip-rule="evenodd" d="M31.15 33.9318C30.2829 35.2996 28.4869 35.7004 27.1398 34.824C25.7889 33.9436 25.3979 32.12 26.2611 30.7483L39.2362 10.201C40.7923 7.73276 43.2658 6.01524 46.0915 5.43749C48.9211 4.85975 51.8591 5.46893 54.232 7.13143L55.0681 7.71311C58.2654 9.94942 60.0112 13.7736 59.6241 17.692L58.5789 28.3116C58.5518 28.5906 58.6409 28.8657 58.8228 29.0701C59.0086 29.2745 59.268 29.3924 59.5428 29.3924H72.9592C76.1952 29.3924 79.2571 30.8898 81.2777 33.4602C83.2983 36.0266 84.057 39.3909 83.337 42.598L77.2249 69.9172C76.1217 74.8379 71.8134 78.328 66.8432 78.328H46.7496C43.1342 78.328 39.5614 77.5694 36.2518 76.0917L27.5385 72.2125C26.0714 71.5561 25.4018 69.819 26.0482 68.3294C26.6908 66.8398 28.4056 66.1599 29.8726 66.8123L38.5821 70.6954C41.1562 71.843 43.9393 72.4326 46.7496 72.4326H66.8432C69.1038 72.4326 71.0586 70.8487 71.5618 68.6084L77.6778 41.2893C78.0029 39.8311 77.6584 38.3023 76.741 37.135C75.8198 35.9677 74.4301 35.2878 72.9592 35.2878H59.5428C57.6267 35.2878 55.8035 34.4663 54.5184 33.0239C53.2333 31.5855 52.6101 29.6596 52.7997 27.726L53.8487 17.1064C54.0229 15.3221 53.2294 13.5849 51.7778 12.5709L50.9417 11.9853C49.8618 11.2307 48.5263 10.9516 47.2412 11.215C45.9561 11.4783 44.8296 12.2604 44.1213 13.3805L31.15 33.9318Z" fill="#BEBEBE"/>
</svg>
