<svg width="84" height="84" viewBox="0 0 84 84" fill="none" xmlns="http://www.w3.org/2000/svg">
<path d="M42 84C41.4024 84.0003 40.8163 83.8347 40.3071 83.5218L29.2385 76.7017C21.1659 71.7651 14.5019 64.831 9.88974 56.5688C5.27756 48.3065 2.87287 38.9948 2.90772 29.5325V16.2863C2.90773 15.5084 3.18843 14.7566 3.69825 14.169C4.20808 13.5814 4.9128 13.1975 5.68295 13.0878C17.9364 11.5958 29.6913 7.34169 40.0616 0.646154C40.6208 0.226729 41.301 0 42 0C42.6991 0 43.3793 0.226729 43.9385 0.646154C54.3128 7.3385 66.0711 11.5882 78.3268 13.0749C79.097 13.1846 79.8017 13.5685 80.3115 14.1561C80.8213 14.7437 81.102 15.4955 81.102 16.2734V29.5195C81.1368 38.9826 78.7314 48.2949 74.118 56.5574C69.5046 64.8198 62.8391 71.7534 54.7648 76.6888L43.693 83.5122C43.1847 83.8285 42.5986 83.9974 42 84ZM9.36926 19.0389V29.5325C9.33628 37.8931 11.4597 46.121 15.5344 53.4215C19.6091 60.722 25.4975 66.8486 32.6308 71.2094L42 76.9731L51.3693 71.1997C58.5026 66.8389 64.3909 60.7123 68.4657 53.4118C72.5404 46.1113 74.6638 37.8834 74.6308 29.5228V19.0389C63.0838 17.2257 52.0006 13.1809 42 7.13031C31.9995 13.1809 20.9162 17.2257 9.36926 19.0389Z" fill="#0C59A0"/>
<path d="M58.4091 27.2452C57.1662 26.0103 55.6567 25.0769 53.9966 24.5168C52.3364 23.9567 50.57 23.7848 48.8331 24.0144C46.2882 24.3345 43.9064 25.4401 42.0194 27.1773C40.1343 25.439 37.7532 24.3332 35.2089 24.0144C33.4724 23.7834 31.706 23.9545 30.0462 24.5147C28.3864 25.0749 26.8775 26.0091 25.6361 27.2452C20.5767 32.3013 22.7284 40.1683 26.0884 45.3827C29.4486 50.3549 33.6592 54.6957 38.5269 58.2056C39.1052 58.6483 39.5704 59.0004 39.8806 59.2718C40.471 59.7933 41.2316 60.0811 42.0194 60.0811C42.8071 60.0811 43.5677 59.7933 44.1581 59.2718C44.4812 59.0004 44.9529 58.6256 45.5603 58.1507C50.4451 54.64 54.663 50.2842 58.0149 45.289C62.3538 38.0682 62.4863 31.3192 58.4091 27.2452Z" fill="#0C59A0"/>
</svg>
