<svg width="84" height="84" viewBox="0 0 84 84" fill="none" xmlns="http://www.w3.org/2000/svg">
<g clip-path="url(#clip0_14_6)">
<mask id="mask0_14_6" style="mask-type:luminance" maskUnits="userSpaceOnUse" x="-13" y="-20" width="117" height="116">
<path d="M56.3667 -19.7647L-13 27.0515L34.3736 95.6022L103.74 48.7859L56.3667 -19.7647Z" fill="white"/>
</mask>
<g mask="url(#mask0_14_6)">
<path d="M28.365 29.3042L37.6018 21.2157L24.2575 1.90625L7.32226 13.336C1.71936 17.1174 0.274155 24.6985 4.10055 30.2354L37.5953 78.7029C41.4217 84.2403 49.093 85.6683 54.6959 81.8863L71.6311 70.4569L58.2868 51.1474L47.3022 56.7065C46.9352 56.8921 46.4833 56.7785 46.2507 56.4421L28.2317 30.3682C27.9992 30.0317 28.0567 29.5744 28.365 29.3042ZM49.5454 61.0358L56.669 57.4308L64.7909 69.1833L51.9201 77.8699C48.5583 80.1391 43.9556 79.2823 41.6597 75.9598L8.16506 27.4923C5.86916 24.1701 6.73636 19.6215 10.0981 17.3526L22.9688 8.66598L31.0907 20.4186L25.1008 25.664C22.9414 27.555 22.5401 30.7568 24.1673 33.1114L42.1863 59.1853C43.8135 61.5397 46.9772 62.3354 49.5454 61.0358Z" fill="#E2800D"/>
<path d="M43.1091 3.9917L42.1836 8.76873C62.1577 12.5472 75.3922 31.698 71.6857 51.4589L76.525 52.3453C78.5589 41.5019 76.2034 30.5006 69.8924 21.3685C63.5815 12.2364 54.0695 6.06512 43.1091 3.9917Z" fill="#E2800D"/>
<path d="M40.9886 15.2969L40.0632 20.0739C53.7362 22.6605 62.7959 35.7699 60.2586 49.2971L65.0979 50.1835C68.1269 34.0348 57.3115 18.3847 40.9886 15.2969Z" fill="#E2800D"/>
<path d="M38.868 26.6021L37.9426 31.3791C45.3145 32.7738 50.1993 39.8421 48.8315 47.1356L53.6708 48.022C55.5306 38.107 48.8899 28.4979 38.868 26.6021Z" fill="#E2800D"/>
</g>
</g>
<defs>
<clipPath id="clip0_14_6">
<rect width="84" height="84" fill="white"/>
</clipPath>
</defs>
</svg>
