<svg width="512" height="512" viewBox="0 0 512 512" fill="none" xmlns="http://www.w3.org/2000/svg">
<path d="M406.608 406.619L406.609 406.619C426.069 387.213 441.577 364.215 452.273 338.899L452.273 338.899C472.795 290.314 474.494 235.829 457.038 186.06C439.582 136.291 404.222 94.8036 357.849 69.6816C311.475 44.5596 257.409 37.6026 206.186 50.1662C154.963 62.7297 110.252 93.9139 80.7656 137.642C51.2789 181.371 39.1287 234.511 46.6824 286.708C54.2361 338.906 80.9527 386.422 121.626 419.997C162.3 453.572 214.017 470.802 266.7 468.329C319.383 465.855 369.259 443.857 406.608 406.619ZM21 256C21 126.213 126.213 21 256 21C385.787 21 491 126.213 491 256C491 385.787 385.787 491 256 491C126.213 491 21 385.787 21 256Z" fill="#FCEE02" stroke="black" stroke-width="10"/>
<path d="M267 188.602V371H245V188.602V176.531L236.464 185.066L164.947 256.583L149.39 241.027L256 134.418L362.61 241.027L347.053 256.583L275.535 185.066L267 176.531V188.602Z" fill="#FCEE02" stroke="black" stroke-width="10"/>
</svg>
