<svg width="84" height="71" viewBox="0 0 84 71" fill="none" xmlns="http://www.w3.org/2000/svg">
<path d="M46.2963 28.8474C45.5725 28.8474 44.9851 28.2602 44.9851 27.5362C44.9851 26.8123 45.5723 26.2251 46.2963 26.2251H77.3562C78.2273 26.2251 79.0715 26.4054 79.8473 26.7277C80.6448 27.061 81.3687 27.5472 81.9724 28.1509C82.5759 28.7518 83.0731 29.4811 83.4037 30.2815C83.726 31.0545 83.909 31.904 83.909 32.7808C83.909 33.6441 83.7342 34.4936 83.4064 35.2856C83.0786 36.0778 82.598 36.8044 81.9887 37.4135C81.3907 38.0116 80.664 38.4979 79.8582 38.8338C79.0797 39.1561 78.233 39.3364 77.3562 39.3364H58.2957C57.572 39.3364 56.9846 38.7462 56.9846 38.0253C56.9846 37.3016 57.5719 36.7143 58.2957 36.7143H77.3563C77.889 36.7143 78.3969 36.6077 78.8531 36.4194C79.3284 36.22 79.7654 35.9251 80.1315 35.559C80.5056 35.1849 80.7952 34.7478 80.9892 34.2834C81.1805 33.819 81.284 33.3083 81.284 32.7837C81.284 32.2511 81.1776 31.7458 80.9862 31.2869C80.7868 30.8062 80.4891 30.3691 80.126 30.0085C79.7599 29.6452 79.3202 29.3476 78.8393 29.1482C78.3858 28.9597 77.8807 28.8531 77.3508 28.8531H46.2963V28.8474Z" fill="black"/>
<path d="M47.3644 0.688391C47.7085 0.054686 48.5034 -0.180177 49.1371 0.16396C49.7707 0.508097 50.0057 1.30304 49.6614 1.93674L37.9379 23.4064C37.591 24.0373 36.7988 24.2722 36.1651 23.928C35.5314 23.5839 35.2993 22.789 35.6407 22.1553L47.3644 0.688391Z" fill="black"/>
<path d="M35.7471 21.9859C36.1842 21.4123 37.0091 21.3032 37.58 21.7401C38.1536 22.1799 38.2628 23.0022 37.8258 23.5729C35.8427 26.176 34.0672 27.498 32.1525 28.1755C30.2569 28.8474 28.3748 28.8474 26.0367 28.8474C25.3129 28.8474 24.7256 28.2602 24.7256 27.5363C24.7256 26.8124 25.3128 26.2251 26.0367 26.2251C28.1319 26.2251 29.8226 26.2224 31.2812 25.7089C32.7207 25.2009 34.1082 24.1356 35.7471 21.9859Z" fill="black"/>
<path d="M48.5115 2.62229C47.7877 2.62229 47.2003 2.03493 47.2003 1.31115C47.2003 0.587364 47.7875 0 48.5115 0C49.0031 0 49.533 0.0600528 50.0682 0.177553L50.1364 0.193868C51.4285 0.488921 52.7944 1.13634 53.8486 2.13049C54.9795 3.19581 55.7634 4.64626 55.7634 6.47635H55.7688C55.7688 6.93525 55.7169 7.41868 55.6077 7.92406C55.4547 8.63152 54.7554 9.07945 54.0507 8.92658C53.346 8.77357 52.8953 8.07432 53.0482 7.36974C53.1165 7.05837 53.1492 6.75783 53.1492 6.47649H53.1547C53.1547 5.46574 52.7065 4.64626 52.0565 4.03723C51.36 3.37898 50.4285 2.94463 49.5381 2.74802L49.5055 2.74254C49.1589 2.66329 48.8201 2.62229 48.5115 2.62229Z" fill="black"/>
<path d="M53.0677 7.28499C53.2645 6.59109 53.9882 6.1869 54.6847 6.38351C55.3812 6.58012 55.7829 7.30405 55.5862 8.00055L52.0542 20.3715C51.8576 21.0653 51.1336 21.4696 50.4371 21.2728C49.7406 21.0762 49.3391 20.3523 49.5358 19.6558L53.0677 7.28499Z" fill="black"/>
<path d="M2.62216 68.1865H18.3529V26.228H2.62216V68.1865ZM19.6641 70.8088H1.34666H1.31115C0.587226 70.8088 0 70.2216 0 69.4977V24.9496V24.9169C0 24.1931 0.587226 23.6057 1.31115 23.6057H19.6313H19.6668C20.3906 23.6057 20.9779 24.1929 20.9779 24.9169V69.465V69.4977C20.9779 70.2216 20.388 70.8088 19.6641 70.8088Z" fill="black"/>
<path d="M46.2388 68.2384C46.9355 68.4297 47.3424 69.1507 47.1485 69.8471C46.9573 70.5411 46.2362 70.9508 45.5399 70.757L32.9638 67.2743H26.0531C25.3293 67.2743 24.7419 66.6871 24.7419 65.9633C24.7419 65.2395 25.3293 64.6522 26.0531 64.6522H33.1223V64.6576C33.237 64.6576 33.3544 64.674 33.4719 64.7067L46.2388 68.2384Z" fill="black"/>
<path d="M81.2867 43.267C81.2867 42.5432 81.8741 41.9559 82.5979 41.9559C83.3215 41.9559 83.9089 42.5431 83.9089 43.267C83.9089 44.1302 83.7341 44.9825 83.4062 45.7691C83.0784 46.561 82.5979 47.2878 81.9886 47.897C81.3905 48.4952 80.6638 48.9813 79.8581 49.3174C79.0796 49.6397 78.2328 49.8199 77.356 49.8199H58.2956C57.572 49.8199 56.9846 49.2327 56.9846 48.5087C56.9846 47.7849 57.5718 47.1977 58.2956 47.1977H77.3563C77.8889 47.1977 78.3969 47.0912 78.8531 46.9028C79.3284 46.7033 79.7654 46.4085 80.1314 46.0423C80.5056 45.6682 80.7952 45.2339 80.9892 44.7667C81.1829 44.3023 81.2867 43.7943 81.2867 43.267Z" fill="black"/>
<path d="M76.0397 53.7643C76.0397 53.0407 76.6269 52.4533 77.3508 52.4533C78.0747 52.4533 78.662 53.0405 78.662 53.7643C78.662 54.6247 78.4873 55.4744 78.1595 56.2636L78.1566 56.269H78.1595C77.8314 57.0584 77.3482 57.7877 76.7416 58.3941L76.6542 58.4734C76.0669 59.0388 75.3731 59.4977 74.6083 59.8143C73.8298 60.1369 72.983 60.3169 72.109 60.3169H53.0485C52.3247 60.3169 51.7373 59.7297 51.7373 59.0059C51.7373 58.282 52.3245 57.6947 53.0485 57.6947H72.109C72.6389 57.6947 73.1499 57.5883 73.6059 57.3998C74.0594 57.2084 74.4771 56.9383 74.8268 56.605L74.8869 56.5393C75.261 56.1652 75.5531 55.7281 75.7445 55.2637H75.7474C75.9357 54.8022 76.0397 54.2912 76.0397 53.7643Z" fill="black"/>
<path d="M65.8975 64.2533C65.8975 63.5295 66.4847 62.9423 67.2086 62.9423C67.9324 62.9423 68.5196 63.5295 68.5196 64.2533C68.5196 66.0587 67.782 67.6977 66.5969 68.8859L66.5092 68.9651C65.3319 70.1013 63.7257 70.8088 61.9697 70.8088H45.8891C45.1654 70.8088 44.578 70.2216 44.578 69.4976C44.578 68.7739 45.1652 68.1866 45.8891 68.1866H61.9695C63.0237 68.1866 63.9827 67.7687 64.6846 67.094L64.7421 67.0312C65.4549 66.3182 65.8975 65.3348 65.8975 64.2533Z" fill="black"/>
</svg>
