<svg width="73" height="73" viewBox="0 0 73 73" fill="none" xmlns="http://www.w3.org/2000/svg">
<g clip-path="url(#clip0_8_166)">
<path d="M64.6243 9.18891C46.0444 -3.06297 26.9556 -3.06297 8.37569 9.18891C7.69395 9.63935 7.28247 10.4039 7.28247 11.222V45.1313C7.28247 57.2079 18.4947 68.1134 35.8499 72.9123C36.0617 72.9708 36.2809 73 36.5 73C36.7191 73 36.9383 72.9708 37.1501 72.9123C54.5053 68.1134 65.7175 57.2079 65.7175 45.1313V11.222C65.7175 10.4039 65.306 9.63935 64.6243 9.18891ZM60.8479 45.1313C60.8479 54.817 51.3133 63.76 36.5 68.0355C21.6867 63.76 12.1521 54.817 12.1521 45.1313V12.5489C28.397 2.29601 44.603 2.29601 60.8479 12.5489V45.1313Z" fill="#BEBEBE"/>
<path d="M23.6102 34.8468C22.6558 33.8997 21.1194 33.9021 20.1674 34.8517C19.2154 35.8037 19.2203 37.3449 20.1723 38.2969L29.8482 47.9411C30.3229 48.4159 30.9438 48.6521 31.5671 48.6521C32.1904 48.6521 32.8113 48.4159 33.2861 47.9411L52.8277 28.4628C53.7797 27.5132 53.7846 25.972 52.8326 25.0175C51.883 24.0655 50.3442 24.0631 49.3898 25.0127L31.5671 42.7769L23.6102 34.8468Z" fill="#BEBEBE"/>
</g>
<defs>
<clipPath id="clip0_8_166">
<rect width="73" height="73" fill="white"/>
</clipPath>
</defs>
</svg>
