<svg width="82" height="65" viewBox="0 0 82 65" fill="none" xmlns="http://www.w3.org/2000/svg">
<g clip-path="url(#clip0_8_104)">
<mask id="path-1-inside-1_8_104" fill="white">
<path d="M34.8952 28.742C35.1692 28.6235 35.4169 28.4525 35.624 28.2389C35.8311 28.0252 35.9935 27.7731 36.102 27.4971C36.2105 27.221 36.2628 26.9264 36.256 26.6303C36.2492 26.3341 36.1834 26.0422 36.0624 25.7713L35.5499 24.6186C36.0705 24.4608 36.5991 24.3303 37.1335 24.2275C38.6882 23.9655 40.165 23.3654 41.4577 22.4705L42.739 23.6131C42.96 23.8125 43.2185 23.9668 43.4997 24.0672C43.7808 24.1676 44.0792 24.2122 44.3778 24.1983C44.6764 24.1845 44.9693 24.1125 45.2398 23.9865C45.5103 23.8605 45.753 23.6829 45.9543 23.4639C46.1555 23.2449 46.3113 22.9888 46.4126 22.7102C46.5139 22.4316 46.5589 22.1359 46.5449 21.8401C46.5309 21.5443 46.4583 21.254 46.3311 20.986C46.2039 20.718 46.0247 20.4774 45.8037 20.278L44.5584 19.1659C45.6722 17.3249 46.1929 15.1912 46.051 13.0493L47.5693 12.6037C48.147 12.4328 48.6325 12.0416 48.919 11.516C49.2056 10.9904 49.2696 10.3736 49.0972 9.80123C48.9247 9.22884 48.5299 8.74777 47.9994 8.46386C47.469 8.17994 46.8465 8.11644 46.2688 8.28731L44.8159 8.71388C43.7707 6.76737 42.1422 5.18974 40.1547 4.19815L40.5186 2.82071C40.6703 2.24041 40.5832 1.62415 40.2763 1.10751C39.9695 0.590871 39.4681 0.216167 38.8824 0.0658305C38.2968 -0.0845064 37.6748 0.00183891 37.1534 0.305871C36.632 0.609904 36.2538 1.10672 36.1021 1.68702L35.7408 3.05558C35.0229 3.03045 34.3044 3.07724 33.596 3.19523C32.1379 3.42755 30.7503 3.83634 29.3538 4.23878L28.9207 3.0378C28.8207 2.75805 28.666 2.50056 28.4656 2.28003C28.2651 2.05951 28.0228 1.88026 27.7524 1.75253C27.2064 1.49457 26.5793 1.4621 26.0091 1.66227C25.4389 1.86243 24.9723 2.27884 24.7119 2.81989C24.4516 3.36093 24.4188 3.98229 24.6208 4.54728L25.068 5.79142C23.1073 6.62497 21.2235 7.62619 19.4382 8.7837L18.6284 7.71349C18.2641 7.23533 17.724 6.91905 17.1256 6.83346C16.5272 6.74787 15.9189 6.89989 15.433 7.25646C15.1928 7.4328 14.9902 7.65447 14.8369 7.90871C14.6835 8.16295 14.5824 8.44474 14.5395 8.73785C14.4965 9.03095 14.5124 9.32959 14.5864 9.61657C14.6604 9.90354 14.7909 10.1732 14.9705 10.41L15.7969 11.503C14.176 12.8668 12.6777 14.3676 11.3189 15.9883L10.1888 15.1733C9.70001 14.8202 9.08988 14.6735 8.49213 14.7654C7.89437 14.8572 7.35774 15.1801 6.9998 15.6633C6.82292 15.9017 6.69543 16.1724 6.62465 16.4599C6.55388 16.7474 6.54124 17.0459 6.58745 17.3382C6.63367 17.6305 6.73782 17.9109 6.89391 18.1631C7.05001 18.4154 7.25495 18.6345 7.49692 18.8079L8.63467 19.6293C7.49175 21.3997 6.50577 23.2648 5.6878 25.2038L4.34505 24.7481C4.06305 24.6514 3.76461 24.6108 3.46677 24.6285C3.16892 24.6462 2.87751 24.7218 2.60916 24.851C2.34081 24.9803 2.10078 25.1607 1.90278 25.3819C1.70479 25.603 1.55269 25.8607 1.45519 26.1401C1.35768 26.4195 1.31668 26.7152 1.33451 27.0103C1.35235 27.3055 1.42867 27.5942 1.55913 27.8601C1.68958 28.126 1.87162 28.3638 2.09483 28.56C2.31805 28.7562 2.57808 28.9069 2.86008 29.0035L4.18617 29.4529C3.8287 30.7225 3.44433 31.9717 3.22267 33.2895C3.09468 34.0869 3.05943 34.8962 3.11761 35.7016L1.63392 36.137C1.34789 36.2215 1.08144 36.3609 0.84979 36.5474C0.618141 36.7338 0.425827 36.9637 0.283831 37.2238C0.141834 37.4839 0.0529344 37.7692 0.022208 38.0634C-0.00851841 38.3575 0.01953 38.6548 0.104752 38.9382C0.189973 39.2217 0.3307 39.4857 0.518895 39.7152C0.707091 39.9447 0.93907 40.1353 1.20159 40.276C1.46411 40.4167 1.75202 40.5048 2.0489 40.5352C2.34577 40.5657 2.64579 40.5379 2.93183 40.4534L4.3758 40.0307C5.42097 41.9733 7.05051 43.5453 9.03827 44.5286L8.66927 45.9327C8.52895 46.5094 8.62295 47.1176 8.93101 47.6262C9.23907 48.1348 9.73651 48.5031 10.3161 48.6517C10.8957 48.8002 11.511 48.7172 12.0293 48.4204C12.5476 48.1236 12.9275 47.6369 13.087 47.0651L13.4547 45.6687C13.5829 45.6687 13.72 45.7017 13.8519 45.7017C15.9332 45.6913 17.966 45.0788 19.7008 43.9396L20.8014 45.0567C21.2211 45.4871 21.7961 45.7345 22.3999 45.7448C23.0037 45.755 23.5869 45.5272 24.0212 45.1113C24.4555 44.6955 24.7053 44.1258 24.7156 43.5275C24.7259 42.9292 24.496 42.3513 24.0763 41.921L22.9052 40.7315C23.6834 39.534 24.2099 38.1933 24.453 36.7896C24.5735 36.1221 24.7391 35.4634 24.9488 34.818L26.102 35.3537C26.6472 35.6088 27.2723 35.6388 27.8399 35.4371C28.4074 35.2355 28.8709 34.8187 29.1283 34.2784C29.3857 33.7382 29.4159 33.1188 29.2124 32.5564C29.0089 31.9941 28.5883 31.5348 28.043 31.2798L26.9155 30.758C27.0014 30.6311 27.0693 30.494 27.159 30.3708C27.4743 29.9558 27.8109 29.5571 28.1673 29.1762C28.6317 28.6613 29.1304 28.1778 29.66 27.7289C30.0665 27.3759 30.4916 27.0446 30.9335 26.7361C31.077 26.6384 31.2308 26.5559 31.3781 26.4632L31.8804 27.5867C32.0607 27.9869 32.3541 28.3267 32.7252 28.5651C33.0963 28.8034 33.5291 28.9302 33.9714 28.9299C34.289 28.9305 34.6034 28.8665 34.8952 28.742ZM16.4003 32.4998C15.5894 32.4998 14.7967 32.2616 14.1225 31.8152C13.4483 31.3688 12.9227 30.7343 12.6124 29.992C12.3021 29.2496 12.2209 28.4328 12.3791 27.6448C12.5373 26.8567 12.9278 26.1328 13.5012 25.5647C14.0746 24.9965 14.8051 24.6096 15.6005 24.4529C16.3958 24.2961 17.2202 24.3766 17.9693 24.6841C18.7185 24.9915 19.3588 25.5122 19.8094 26.1803C20.2599 26.8484 20.5003 27.6338 20.5003 28.4373C20.5003 29.5148 20.0684 30.5481 19.2995 31.3099C18.5306 32.0718 17.4877 32.4998 16.4003 32.4998ZM26.6503 20.3123C26.2449 20.3123 25.8485 20.1932 25.5114 19.97C25.1743 19.7468 24.9115 19.4296 24.7564 19.0584C24.6012 18.6872 24.5606 18.2788 24.6397 17.8848C24.7188 17.4908 24.9141 17.1288 25.2008 16.8448C25.4875 16.5607 25.8527 16.3672 26.2504 16.2888C26.6481 16.2105 27.0602 16.2507 27.4348 16.4044C27.8094 16.5582 28.1296 16.8185 28.3548 17.1526C28.5801 17.4866 28.7003 17.8793 28.7003 18.2811C28.7003 18.8198 28.4843 19.3364 28.0999 19.7174C27.7154 20.0983 27.194 20.3123 26.6503 20.3123ZM81.9055 26.0633C81.7648 25.5974 81.4761 25.1889 81.0822 24.8986C80.6884 24.6083 80.2105 24.4518 79.7197 24.4523C79.4993 24.4518 79.28 24.4834 79.0688 24.5462L77.6249 24.969C76.579 23.0269 74.9497 21.455 72.9624 20.471L73.3314 19.0669C73.469 18.4911 73.3733 17.8849 73.0649 17.3782C72.7565 16.8715 72.26 16.5048 71.6818 16.3568C71.1037 16.2087 70.49 16.2912 69.9724 16.5864C69.4549 16.8816 69.0748 17.366 68.9136 17.9358L68.5459 19.3322C68.4178 19.3322 68.2807 19.2992 68.1487 19.2992C66.0673 19.3095 64.0343 19.9224 62.2998 21.0626L61.1992 19.9442C60.7796 19.5138 60.2046 19.2664 59.6008 19.2561C58.9969 19.2459 58.4137 19.4737 57.9795 19.8896C57.5452 20.3054 57.2954 20.8751 57.2851 21.4734C57.2747 22.0717 57.5047 22.6496 57.9244 23.0799L59.0954 24.2694C58.3167 25.4671 57.7902 26.8083 57.5477 28.2126C57.427 28.8796 57.2614 29.5379 57.0518 30.1829L55.8987 29.6472C55.3535 29.3921 54.7283 29.3621 54.1608 29.5638C53.5933 29.7654 53.1298 30.1822 52.8724 30.7225C52.615 31.2627 52.5847 31.8821 52.7882 32.4445C52.9917 33.0068 53.4124 33.4661 53.9576 33.7211L55.0851 34.2429C54.9993 34.3698 54.9314 34.5069 54.843 34.6301C54.5253 35.0482 54.1858 35.4495 53.8256 35.8323C53.365 36.3446 52.8698 36.8252 52.3432 37.2707C51.9339 37.6239 51.5063 37.9557 51.062 38.2648C50.9185 38.3625 50.7647 38.445 50.6174 38.5377L50.1151 37.4142C49.9349 37.014 49.6414 36.6742 49.2703 36.4358C48.8993 36.1975 48.4664 36.0707 48.0241 36.071C47.7076 36.0718 47.3946 36.1366 47.1042 36.2614C46.8308 36.3801 46.5837 36.551 46.377 36.7644C46.1704 36.9778 46.0082 37.2296 45.8999 37.5052C45.7916 37.7808 45.7393 38.0748 45.7458 38.3705C45.7524 38.6662 45.8178 38.9577 45.9383 39.2283L46.4508 40.3811C45.9303 40.5394 45.4017 40.6699 44.8671 40.7721C43.311 41.0361 41.8332 41.6388 40.5404 42.5367L39.2591 41.3941C39.039 41.1895 38.7799 41.0303 38.4971 40.9257C38.2142 40.8212 37.9132 40.7734 37.6116 40.7852C37.3099 40.797 37.0137 40.8681 36.74 40.9944C36.4664 41.1207 36.2208 41.2997 36.0176 41.5209C35.8144 41.7421 35.6576 42.0011 35.5564 42.2829C35.4552 42.5647 35.4115 42.8637 35.428 43.1623C35.4444 43.461 35.5206 43.7535 35.6522 44.0227C35.7838 44.2919 35.9681 44.5325 36.1944 44.7305L37.4397 45.8413C36.3259 47.6823 35.8052 49.8161 35.9471 51.9579L34.4275 52.4035C34.1415 52.4882 33.8751 52.6279 33.6435 52.8146C33.412 53.0013 33.2198 53.2314 33.078 53.4917C32.9362 53.752 32.8475 54.0374 32.817 54.3316C32.7865 54.6259 32.8148 54.9232 32.9003 55.2066C32.9857 55.4901 33.1267 55.754 33.3151 55.9835C33.5036 56.2129 33.7358 56.4033 33.9985 56.5438C34.2612 56.6844 34.5492 56.7722 34.8462 56.8024C35.1432 56.8327 35.4432 56.8046 35.7293 56.7199L37.1822 56.2934C38.2282 58.2409 39.8581 59.8191 41.8472 60.8104L41.4834 62.1878C41.3316 62.7681 41.4188 63.3844 41.7256 63.901C42.0325 64.4176 42.5339 64.7923 43.1195 64.9427C43.7052 65.093 44.3271 65.0067 44.8485 64.7026C45.3699 64.3986 45.7481 63.9018 45.8998 63.3215L46.2611 61.9529C46.979 61.978 47.6976 61.9312 48.406 61.8133C49.8627 61.5733 51.2555 61.1696 52.6469 60.7672L53.08 61.9682C53.282 62.5332 53.7022 62.9955 54.2483 63.2534C54.7943 63.5114 55.4214 63.5439 55.9916 63.3437C56.5618 63.1435 57.0284 62.7271 57.2887 62.1861C57.5491 61.645 57.5818 61.0237 57.3798 60.4587L56.9327 59.2158C58.8932 58.3813 60.7769 57.3797 62.5625 56.2223L63.3722 57.2925C63.7361 57.7708 64.276 58.0873 64.8743 58.1729C65.4726 58.2585 66.0808 58.1063 66.5664 57.7495C66.8079 57.5734 67.0116 57.3516 67.1659 57.0969C67.3201 56.8422 67.4217 56.5596 67.4649 56.2656C67.508 55.9717 67.4918 55.6722 67.4172 55.3844C67.3426 55.0967 67.211 54.8266 67.0302 54.5897L66.2038 53.4966C67.8244 52.132 69.3227 50.6309 70.6818 49.0101L71.8118 49.8251C72.052 50.0101 72.3271 50.1456 72.621 50.2234C72.9149 50.3012 73.2215 50.3199 73.5228 50.2783C73.8241 50.2367 74.1139 50.1356 74.3751 49.9811C74.6363 49.8266 74.8636 49.6218 75.0435 49.3787C75.2234 49.1357 75.3523 48.8594 75.4226 48.5661C75.4929 48.2728 75.5031 47.9686 75.4526 47.6714C75.4022 47.3741 75.2921 47.0899 75.1289 46.8355C74.9657 46.5812 74.7527 46.3618 74.5025 46.1904L73.3647 45.3703C74.5074 43.5994 75.4933 41.7338 76.3116 39.7945L77.6543 40.2503C77.9363 40.3469 78.2348 40.3875 78.5326 40.3699C78.8305 40.3522 79.1219 40.2766 79.3902 40.1473C79.6586 40.0181 79.8986 39.8377 80.0966 39.6165C80.2946 39.3953 80.4467 39.1377 80.5442 38.8583C80.6417 38.5788 80.6827 38.2831 80.6649 37.988C80.647 37.6929 80.5707 37.4041 80.4403 37.1382C80.3098 36.8724 80.1278 36.6345 79.9045 36.4383C79.6813 36.2421 79.4213 36.0914 79.1393 35.9948L77.8145 35.5467C78.172 34.2772 78.5563 33.0279 78.778 31.7114C78.9063 30.9119 78.9416 30.1005 78.8831 29.293L80.3667 28.8575C80.6532 28.7746 80.9204 28.6365 81.1529 28.451C81.3853 28.2656 81.5786 28.0365 81.7216 27.7769C81.8645 27.5173 81.9544 27.2323 81.9859 26.9383C82.0175 26.6442 81.9902 26.3469 81.9055 26.0633ZM53.3003 52.8123C52.4894 52.8123 51.6967 52.5741 51.0225 52.1277C50.3483 51.6813 49.8227 51.0468 49.5124 50.3045C49.2021 49.5621 49.1209 48.7453 49.2791 47.9573C49.4373 47.1692 49.8278 46.4453 50.4012 45.8772C50.9746 45.309 51.7051 44.9221 52.5005 44.7654C53.2958 44.6086 54.1202 44.6891 54.8693 44.9966C55.6185 45.304 56.2588 45.8247 56.7094 46.4928C57.1599 47.1609 57.4003 47.9463 57.4003 48.7498C57.4003 49.8273 56.9684 50.8606 56.1995 51.6224C55.4306 52.3843 54.3877 52.8123 53.3003 52.8123Z"/>
</mask>
<path d="M34.8952 28.742C35.1692 28.6235 35.4169 28.4525 35.624 28.2389C35.8311 28.0252 35.9935 27.7731 36.102 27.4971C36.2105 27.221 36.2628 26.9264 36.256 26.6303C36.2492 26.3341 36.1834 26.0422 36.0624 25.7713L35.5499 24.6186C36.0705 24.4608 36.5991 24.3303 37.1335 24.2275C38.6882 23.9655 40.165 23.3654 41.4577 22.4705L42.739 23.6131C42.96 23.8125 43.2185 23.9668 43.4997 24.0672C43.7808 24.1676 44.0792 24.2122 44.3778 24.1983C44.6764 24.1845 44.9693 24.1125 45.2398 23.9865C45.5103 23.8605 45.753 23.6829 45.9543 23.4639C46.1555 23.2449 46.3113 22.9888 46.4126 22.7102C46.5139 22.4316 46.5589 22.1359 46.5449 21.8401C46.5309 21.5443 46.4583 21.254 46.3311 20.986C46.2039 20.718 46.0247 20.4774 45.8037 20.278L44.5584 19.1659C45.6722 17.3249 46.1929 15.1912 46.051 13.0493L47.5693 12.6037C48.147 12.4328 48.6325 12.0416 48.919 11.516C49.2056 10.9904 49.2696 10.3736 49.0972 9.80123C48.9247 9.22884 48.5299 8.74777 47.9994 8.46386C47.469 8.17994 46.8465 8.11644 46.2688 8.28731L44.8159 8.71388C43.7707 6.76737 42.1422 5.18974 40.1547 4.19815L40.5186 2.82071C40.6703 2.24041 40.5832 1.62415 40.2763 1.10751C39.9695 0.590871 39.4681 0.216167 38.8824 0.0658305C38.2968 -0.0845064 37.6748 0.00183891 37.1534 0.305871C36.632 0.609904 36.2538 1.10672 36.1021 1.68702L35.7408 3.05558C35.0229 3.03045 34.3044 3.07724 33.596 3.19523C32.1379 3.42755 30.7503 3.83634 29.3538 4.23878L28.9207 3.0378C28.8207 2.75805 28.666 2.50056 28.4656 2.28003C28.2651 2.05951 28.0228 1.88026 27.7524 1.75253C27.2064 1.49457 26.5793 1.4621 26.0091 1.66227C25.4389 1.86243 24.9723 2.27884 24.7119 2.81989C24.4516 3.36093 24.4188 3.98229 24.6208 4.54728L25.068 5.79142C23.1073 6.62497 21.2235 7.62619 19.4382 8.7837L18.6284 7.71349C18.2641 7.23533 17.724 6.91905 17.1256 6.83346C16.5272 6.74787 15.9189 6.89989 15.433 7.25646C15.1928 7.4328 14.9902 7.65447 14.8369 7.90871C14.6835 8.16295 14.5824 8.44474 14.5395 8.73785C14.4965 9.03095 14.5124 9.32959 14.5864 9.61657C14.6604 9.90354 14.7909 10.1732 14.9705 10.41L15.7969 11.503C14.176 12.8668 12.6777 14.3676 11.3189 15.9883L10.1888 15.1733C9.70001 14.8202 9.08988 14.6735 8.49213 14.7654C7.89437 14.8572 7.35774 15.1801 6.9998 15.6633C6.82292 15.9017 6.69543 16.1724 6.62465 16.4599C6.55388 16.7474 6.54124 17.0459 6.58745 17.3382C6.63367 17.6305 6.73782 17.9109 6.89391 18.1631C7.05001 18.4154 7.25495 18.6345 7.49692 18.8079L8.63467 19.6293C7.49175 21.3997 6.50577 23.2648 5.6878 25.2038L4.34505 24.7481C4.06305 24.6514 3.76461 24.6108 3.46677 24.6285C3.16892 24.6462 2.87751 24.7218 2.60916 24.851C2.34081 24.9803 2.10078 25.1607 1.90278 25.3819C1.70479 25.603 1.55269 25.8607 1.45519 26.1401C1.35768 26.4195 1.31668 26.7152 1.33451 27.0103C1.35235 27.3055 1.42867 27.5942 1.55913 27.8601C1.68958 28.126 1.87162 28.3638 2.09483 28.56C2.31805 28.7562 2.57808 28.9069 2.86008 29.0035L4.18617 29.4529C3.8287 30.7225 3.44433 31.9717 3.22267 33.2895C3.09468 34.0869 3.05943 34.8962 3.11761 35.7016L1.63392 36.137C1.34789 36.2215 1.08144 36.3609 0.84979 36.5474C0.618141 36.7338 0.425827 36.9637 0.283831 37.2238C0.141834 37.4839 0.0529344 37.7692 0.022208 38.0634C-0.00851841 38.3575 0.01953 38.6548 0.104752 38.9382C0.189973 39.2217 0.3307 39.4857 0.518895 39.7152C0.707091 39.9447 0.93907 40.1353 1.20159 40.276C1.46411 40.4167 1.75202 40.5048 2.0489 40.5352C2.34577 40.5657 2.64579 40.5379 2.93183 40.4534L4.3758 40.0307C5.42097 41.9733 7.05051 43.5453 9.03827 44.5286L8.66927 45.9327C8.52895 46.5094 8.62295 47.1176 8.93101 47.6262C9.23907 48.1348 9.73651 48.5031 10.3161 48.6517C10.8957 48.8002 11.511 48.7172 12.0293 48.4204C12.5476 48.1236 12.9275 47.6369 13.087 47.0651L13.4547 45.6687C13.5829 45.6687 13.72 45.7017 13.8519 45.7017C15.9332 45.6913 17.966 45.0788 19.7008 43.9396L20.8014 45.0567C21.2211 45.4871 21.7961 45.7345 22.3999 45.7448C23.0037 45.755 23.5869 45.5272 24.0212 45.1113C24.4555 44.6955 24.7053 44.1258 24.7156 43.5275C24.7259 42.9292 24.496 42.3513 24.0763 41.921L22.9052 40.7315C23.6834 39.534 24.2099 38.1933 24.453 36.7896C24.5735 36.1221 24.7391 35.4634 24.9488 34.818L26.102 35.3537C26.6472 35.6088 27.2723 35.6388 27.8399 35.4371C28.4074 35.2355 28.8709 34.8187 29.1283 34.2784C29.3857 33.7382 29.4159 33.1188 29.2124 32.5564C29.0089 31.9941 28.5883 31.5348 28.043 31.2798L26.9155 30.758C27.0014 30.6311 27.0693 30.494 27.159 30.3708C27.4743 29.9558 27.8109 29.5571 28.1673 29.1762C28.6317 28.6613 29.1304 28.1778 29.66 27.7289C30.0665 27.3759 30.4916 27.0446 30.9335 26.7361C31.077 26.6384 31.2308 26.5559 31.3781 26.4632L31.8804 27.5867C32.0607 27.9869 32.3541 28.3267 32.7252 28.5651C33.0963 28.8034 33.5291 28.9302 33.9714 28.9299C34.289 28.9305 34.6034 28.8665 34.8952 28.742ZM16.4003 32.4998C15.5894 32.4998 14.7967 32.2616 14.1225 31.8152C13.4483 31.3688 12.9227 30.7343 12.6124 29.992C12.3021 29.2496 12.2209 28.4328 12.3791 27.6448C12.5373 26.8567 12.9278 26.1328 13.5012 25.5647C14.0746 24.9965 14.8051 24.6096 15.6005 24.4529C16.3958 24.2961 17.2202 24.3766 17.9693 24.6841C18.7185 24.9915 19.3588 25.5122 19.8094 26.1803C20.2599 26.8484 20.5003 27.6338 20.5003 28.4373C20.5003 29.5148 20.0684 30.5481 19.2995 31.3099C18.5306 32.0718 17.4877 32.4998 16.4003 32.4998ZM26.6503 20.3123C26.2449 20.3123 25.8485 20.1932 25.5114 19.97C25.1743 19.7468 24.9115 19.4296 24.7564 19.0584C24.6012 18.6872 24.5606 18.2788 24.6397 17.8848C24.7188 17.4908 24.9141 17.1288 25.2008 16.8448C25.4875 16.5607 25.8527 16.3672 26.2504 16.2888C26.6481 16.2105 27.0602 16.2507 27.4348 16.4044C27.8094 16.5582 28.1296 16.8185 28.3548 17.1526C28.5801 17.4866 28.7003 17.8793 28.7003 18.2811C28.7003 18.8198 28.4843 19.3364 28.0999 19.7174C27.7154 20.0983 27.194 20.3123 26.6503 20.3123ZM81.9055 26.0633C81.7648 25.5974 81.4761 25.1889 81.0822 24.8986C80.6884 24.6083 80.2105 24.4518 79.7197 24.4523C79.4993 24.4518 79.28 24.4834 79.0688 24.5462L77.6249 24.969C76.579 23.0269 74.9497 21.455 72.9624 20.471L73.3314 19.0669C73.469 18.4911 73.3733 17.8849 73.0649 17.3782C72.7565 16.8715 72.26 16.5048 71.6818 16.3568C71.1037 16.2087 70.49 16.2912 69.9724 16.5864C69.4549 16.8816 69.0748 17.366 68.9136 17.9358L68.5459 19.3322C68.4178 19.3322 68.2807 19.2992 68.1487 19.2992C66.0673 19.3095 64.0343 19.9224 62.2998 21.0626L61.1992 19.9442C60.7796 19.5138 60.2046 19.2664 59.6008 19.2561C58.9969 19.2459 58.4137 19.4737 57.9795 19.8896C57.5452 20.3054 57.2954 20.8751 57.2851 21.4734C57.2747 22.0717 57.5047 22.6496 57.9244 23.0799L59.0954 24.2694C58.3167 25.4671 57.7902 26.8083 57.5477 28.2126C57.427 28.8796 57.2614 29.5379 57.0518 30.1829L55.8987 29.6472C55.3535 29.3921 54.7283 29.3621 54.1608 29.5638C53.5933 29.7654 53.1298 30.1822 52.8724 30.7225C52.615 31.2627 52.5847 31.8821 52.7882 32.4445C52.9917 33.0068 53.4124 33.4661 53.9576 33.7211L55.0851 34.2429C54.9993 34.3698 54.9314 34.5069 54.843 34.6301C54.5253 35.0482 54.1858 35.4495 53.8256 35.8323C53.365 36.3446 52.8698 36.8252 52.3432 37.2707C51.9339 37.6239 51.5063 37.9557 51.062 38.2648C50.9185 38.3625 50.7647 38.445 50.6174 38.5377L50.1151 37.4142C49.9349 37.014 49.6414 36.6742 49.2703 36.4358C48.8993 36.1975 48.4664 36.0707 48.0241 36.071C47.7076 36.0718 47.3946 36.1366 47.1042 36.2614C46.8308 36.3801 46.5837 36.551 46.377 36.7644C46.1704 36.9778 46.0082 37.2296 45.8999 37.5052C45.7916 37.7808 45.7393 38.0748 45.7458 38.3705C45.7524 38.6662 45.8178 38.9577 45.9383 39.2283L46.4508 40.3811C45.9303 40.5394 45.4017 40.6699 44.8671 40.7721C43.311 41.0361 41.8332 41.6388 40.5404 42.5367L39.2591 41.3941C39.039 41.1895 38.7799 41.0303 38.4971 40.9257C38.2142 40.8212 37.9132 40.7734 37.6116 40.7852C37.3099 40.797 37.0137 40.8681 36.74 40.9944C36.4664 41.1207 36.2208 41.2997 36.0176 41.5209C35.8144 41.7421 35.6576 42.0011 35.5564 42.2829C35.4552 42.5647 35.4115 42.8637 35.428 43.1623C35.4444 43.461 35.5206 43.7535 35.6522 44.0227C35.7838 44.2919 35.9681 44.5325 36.1944 44.7305L37.4397 45.8413C36.3259 47.6823 35.8052 49.8161 35.9471 51.9579L34.4275 52.4035C34.1415 52.4882 33.8751 52.6279 33.6435 52.8146C33.412 53.0013 33.2198 53.2314 33.078 53.4917C32.9362 53.752 32.8475 54.0374 32.817 54.3316C32.7865 54.6259 32.8148 54.9232 32.9003 55.2066C32.9857 55.4901 33.1267 55.754 33.3151 55.9835C33.5036 56.2129 33.7358 56.4033 33.9985 56.5438C34.2612 56.6844 34.5492 56.7722 34.8462 56.8024C35.1432 56.8327 35.4432 56.8046 35.7293 56.7199L37.1822 56.2934C38.2282 58.2409 39.8581 59.8191 41.8472 60.8104L41.4834 62.1878C41.3316 62.7681 41.4188 63.3844 41.7256 63.901C42.0325 64.4176 42.5339 64.7923 43.1195 64.9427C43.7052 65.093 44.3271 65.0067 44.8485 64.7026C45.3699 64.3986 45.7481 63.9018 45.8998 63.3215L46.2611 61.9529C46.979 61.978 47.6976 61.9312 48.406 61.8133C49.8627 61.5733 51.2555 61.1696 52.6469 60.7672L53.08 61.9682C53.282 62.5332 53.7022 62.9955 54.2483 63.2534C54.7943 63.5114 55.4214 63.5439 55.9916 63.3437C56.5618 63.1435 57.0284 62.7271 57.2887 62.1861C57.5491 61.645 57.5818 61.0237 57.3798 60.4587L56.9327 59.2158C58.8932 58.3813 60.7769 57.3797 62.5625 56.2223L63.3722 57.2925C63.7361 57.7708 64.276 58.0873 64.8743 58.1729C65.4726 58.2585 66.0808 58.1063 66.5664 57.7495C66.8079 57.5734 67.0116 57.3516 67.1659 57.0969C67.3201 56.8422 67.4217 56.5596 67.4649 56.2656C67.508 55.9717 67.4918 55.6722 67.4172 55.3844C67.3426 55.0967 67.211 54.8266 67.0302 54.5897L66.2038 53.4966C67.8244 52.132 69.3227 50.6309 70.6818 49.0101L71.8118 49.8251C72.052 50.0101 72.3271 50.1456 72.621 50.2234C72.9149 50.3012 73.2215 50.3199 73.5228 50.2783C73.8241 50.2367 74.1139 50.1356 74.3751 49.9811C74.6363 49.8266 74.8636 49.6218 75.0435 49.3787C75.2234 49.1357 75.3523 48.8594 75.4226 48.5661C75.4929 48.2728 75.5031 47.9686 75.4526 47.6714C75.4022 47.3741 75.2921 47.0899 75.1289 46.8355C74.9657 46.5812 74.7527 46.3618 74.5025 46.1904L73.3647 45.3703C74.5074 43.5994 75.4933 41.7338 76.3116 39.7945L77.6543 40.2503C77.9363 40.3469 78.2348 40.3875 78.5326 40.3699C78.8305 40.3522 79.1219 40.2766 79.3902 40.1473C79.6586 40.0181 79.8986 39.8377 80.0966 39.6165C80.2946 39.3953 80.4467 39.1377 80.5442 38.8583C80.6417 38.5788 80.6827 38.2831 80.6649 37.988C80.647 37.6929 80.5707 37.4041 80.4403 37.1382C80.3098 36.8724 80.1278 36.6345 79.9045 36.4383C79.6813 36.2421 79.4213 36.0914 79.1393 35.9948L77.8145 35.5467C78.172 34.2772 78.5563 33.0279 78.778 31.7114C78.9063 30.9119 78.9416 30.1005 78.8831 29.293L80.3667 28.8575C80.6532 28.7746 80.9204 28.6365 81.1529 28.451C81.3853 28.2656 81.5786 28.0365 81.7216 27.7769C81.8645 27.5173 81.9544 27.2323 81.9859 26.9383C82.0175 26.6442 81.9902 26.3469 81.9055 26.0633ZM53.3003 52.8123C52.4894 52.8123 51.6967 52.5741 51.0225 52.1277C50.3483 51.6813 49.8227 51.0468 49.5124 50.3045C49.2021 49.5621 49.1209 48.7453 49.2791 47.9573C49.4373 47.1692 49.8278 46.4453 50.4012 45.8772C50.9746 45.309 51.7051 44.9221 52.5005 44.7654C53.2958 44.6086 54.1202 44.6891 54.8693 44.9966C55.6185 45.304 56.2588 45.8247 56.7094 46.4928C57.1599 47.1609 57.4003 47.9463 57.4003 48.7498C57.4003 49.8273 56.9684 50.8606 56.1995 51.6224C55.4306 52.3843 54.3877 52.8123 53.3003 52.8123Z" fill="white" stroke="black" stroke-width="8" mask="url(#path-1-inside-1_8_104)"/>
</g>
<defs>
<clipPath id="clip0_8_104">
<rect width="82" height="65" fill="white"/>
</clipPath>
</defs>
</svg>
