<svg width="84" height="84" viewBox="0 0 84 84" fill="none" xmlns="http://www.w3.org/2000/svg">
<g clip-path="url(#clip0_13_312)">
<path d="M81.8196 36.9199L79.3717 34.472C78.3657 33.466 77.7594 31.2082 78.1282 29.8334L79.0224 26.4885C79.517 24.6415 79.2599 22.705 78.3015 21.0423C77.3402 19.3769 75.7949 18.1893 73.9451 17.6947L70.5974 16.7977C69.2226 16.4289 67.5712 14.7774 67.1995 13.4026L66.3053 10.0577C65.3049 6.31609 61.2531 3.95486 57.5087 4.9776L54.1666 5.87179C52.8868 6.2127 50.4893 5.58956 49.528 4.6311L47.0774 2.17765C44.3724 -0.518898 39.6276 -0.521693 36.9227 2.18045L34.472 4.6311C33.5136 5.59515 31.1132 6.21829 29.8334 5.87459L26.4885 4.9776C22.7301 3.97722 18.6923 6.32168 17.6891 10.0577L16.7977 13.3998C16.4289 14.7774 14.7746 16.4317 13.3998 16.7977L10.0577 17.6919C8.20788 18.1893 6.6598 19.3797 5.69855 21.0451C4.73729 22.7106 4.483 24.6415 4.9804 26.483L5.87459 29.8306C6.24344 31.2082 5.64266 33.4633 4.6311 34.4692L2.18604 36.9171C0.830779 38.2751 0.0846863 40.0775 0.0846863 42C0.0846863 43.9225 0.827985 45.7249 2.18045 47.0773L4.62551 49.5224C5.63148 50.5312 6.23786 52.7918 5.8718 54.1666L4.9776 57.5115C4.483 59.3585 4.74008 61.295 5.70134 62.9577C6.6626 64.6231 8.21067 65.8107 10.0577 66.3025L13.397 67.1967C14.7774 67.5684 16.4289 69.2226 16.8005 70.5946L17.6947 73.9395C18.6951 77.6727 22.7329 80.0172 26.4913 79.0168L29.8334 78.1226C31.1244 77.7789 33.5108 78.4049 34.4748 79.3633L36.9227 81.8112C38.2751 83.1692 40.0803 83.9153 42.0028 83.9153C43.9253 83.9153 45.7277 83.1692 47.0802 81.8168L49.5336 79.3689C50.4948 78.4049 52.8784 77.7817 54.175 78.1282L57.5143 79.0196C58.1178 79.1817 58.741 79.2655 59.3669 79.2655C62.6168 79.2655 65.4726 77.0775 66.3137 73.9395L67.2051 70.603C67.5767 69.2254 69.2282 67.5711 70.6058 67.2023L73.9535 66.3081C77.7789 65.277 80.0535 61.3286 79.0252 57.5143L78.131 54.1694C77.7622 52.7918 78.3657 50.534 79.3717 49.528L81.8196 47.0801C84.6167 44.2718 84.6167 39.717 81.8196 36.9199ZM77.8683 43.1233L75.4205 45.5712C73.0006 47.9883 71.8465 52.3056 72.7323 55.6085L73.6265 58.9562C73.8529 59.7889 73.3359 60.6831 72.5032 60.9066L69.1611 61.8008C65.8582 62.6838 62.6978 65.8442 61.8092 69.1527L60.9178 72.492C60.6998 73.308 59.8168 73.8445 58.9617 73.6181L55.6253 72.7267C52.3866 71.8633 47.9212 73.0732 45.5852 75.4149L43.1345 77.8628C42.5393 78.458 41.4775 78.458 40.8795 77.8628L38.4316 75.4177C36.6209 73.6042 33.6058 72.4305 30.7499 72.4305C29.9172 72.4305 29.1236 72.5311 28.3915 72.7267L25.0522 73.6209C24.2111 73.8417 23.3142 73.3052 23.0962 72.4976L22.202 69.15C21.3134 65.847 18.153 62.6894 14.8501 61.8008L11.5052 60.9066C11.1 60.7976 10.7591 60.5322 10.544 60.1605C10.3288 59.7917 10.2701 59.3641 10.3791 58.9562L11.2761 55.6085C12.1563 52.3056 10.9994 47.9911 8.58511 45.5712L6.13726 43.1233C5.83826 42.8299 5.6734 42.4275 5.6734 42C5.6734 41.7513 5.73208 41.2763 6.13446 40.8767L8.57952 38.4288C10.9994 36.0117 12.1563 31.6972 11.2705 28.3915L10.3763 25.0411C10.2701 24.6331 10.326 24.2083 10.5384 23.8367C10.7535 23.4651 11.0944 23.1996 11.5024 23.0906L14.8445 22.1964C18.1474 21.3134 21.3078 18.153 22.1964 14.8445L23.0878 11.5024C23.3086 10.6921 24.2307 10.1527 25.0383 10.3763L28.3803 11.2733C31.6246 12.1423 36.0816 10.9268 38.4204 8.58231L40.8683 6.13446C41.4635 5.53926 42.5337 5.54206 43.1233 6.13167L45.5712 8.58231C47.9129 10.924 52.3699 12.1395 55.6085 11.2705L58.9506 10.3763C59.7945 10.1555 60.6887 10.6893 60.9038 11.4996L61.798 14.8473C62.6894 18.153 65.8498 21.3106 69.1472 22.1908L72.492 23.0878C72.9 23.1968 73.2409 23.4623 73.4561 23.8339C73.6712 24.2056 73.7299 24.6331 73.6209 25.0411L72.7239 28.3887C71.8437 31.6944 73.0006 36.0089 75.4149 38.4232L77.8628 40.8711C78.4775 41.4803 78.4775 42.5142 77.8683 43.1233Z" fill="#039750"/>
<path d="M42 28.0282H50.3831C51.9256 28.0282 53.1774 26.7792 53.1774 25.2339C53.1774 23.6886 51.9256 22.4395 50.3831 22.4395H44.7944V19.6452C44.7944 18.0999 43.5425 16.8508 42 16.8508C40.4575 16.8508 39.2057 18.0999 39.2057 19.6452V22.8363C34.3994 24.0854 30.8226 28.425 30.8226 33.617C30.8226 39.7813 35.8357 44.7944 42 44.7944C45.0822 44.7944 47.5887 47.3009 47.5887 50.3831C47.5887 53.4653 45.0822 55.9718 42 55.9718H33.617C32.0745 55.9718 30.8226 57.2209 30.8226 58.7662C30.8226 60.3114 32.0745 61.5605 33.617 61.5605H39.2057V64.3549C39.2057 65.9001 40.4575 67.1492 42 67.1492C43.5425 67.1492 44.7944 65.9001 44.7944 64.3549V61.1637C49.6007 59.9146 53.1774 55.575 53.1774 50.3831C53.1774 44.2187 48.1644 39.2057 42 39.2057C38.9178 39.2057 36.4113 36.6991 36.4113 33.617C36.4113 30.5348 38.9178 28.0282 42 28.0282Z" fill="#039750"/>
</g>
<defs>
<clipPath id="clip0_13_312">
<rect width="84" height="84" fill="white"/>
</clipPath>
</defs>
</svg>
