<svg width="73" height="73" viewBox="0 0 73 73" fill="none" xmlns="http://www.w3.org/2000/svg">
<g clip-path="url(#clip0_8_196)">
<path d="M70.1679 34.64L38.9304 3.40244C36.769 1.24105 33.7781 0 30.7191 0H6.63642C2.97797 0 0 2.97626 0 6.63642V30.7176C0 33.8187 1.2087 36.7351 3.40244 38.9304L34.64 70.1679C36.4676 71.994 38.8979 73 41.4772 73C44.0565 73 46.4868 71.9938 48.3144 70.1679L70.1678 48.3146C71.9954 46.4902 72.9998 44.0615 72.9998 41.4774C72.9998 38.8932 71.9955 36.4643 70.1679 34.64ZM67.8219 45.9686L45.9686 67.8219C43.5642 70.2199 39.3905 70.2199 36.9861 67.8219L5.74844 36.5842C4.18013 35.0159 3.31813 32.9323 3.31813 30.7174V6.63642C3.31813 4.80727 4.80556 3.31829 6.63626 3.31829H30.7191C32.9032 3.31829 35.0419 4.20455 36.5842 5.7486L67.8218 36.9861C69.0208 38.185 69.6819 39.7793 69.6819 41.4774C69.6819 43.1752 69.0208 44.7695 67.8219 45.9686Z" fill="#039750"/>
<path d="M39.0827 41.4287C39.4067 41.7527 39.8311 41.9147 40.2558 41.9147C40.6802 41.9147 41.1047 41.7527 41.4288 41.4287C42.077 40.7805 42.077 39.7306 41.4288 39.0827L39.0822 36.736L41.4288 34.3889L44.9479 37.9096C45.5961 38.5577 46.646 38.5577 47.2939 37.9096C47.9421 37.2615 47.9421 36.2116 47.2939 35.5636L42.6018 30.8699C42.2907 30.5588 41.8695 30.3838 41.4287 30.3838C40.9879 30.3838 40.5667 30.5588 40.2556 30.8699L30.8714 40.2557C30.2233 40.9039 30.2233 41.9538 30.8714 42.6018L35.5636 47.2939C35.8876 47.6179 36.3122 47.78 36.7367 47.78C37.1611 47.78 37.5856 47.6179 37.9098 47.2939C38.5579 46.6458 38.5579 45.5959 37.9098 44.9479L34.3907 41.4288L36.7365 39.0825L39.0827 41.4287Z" fill="#039750"/>
<path d="M51.986 40.2556C51.3378 39.6075 50.2879 39.6075 49.6399 40.2556L40.2558 49.6398C39.6076 50.2879 39.6076 51.3378 40.2558 51.9858L44.9479 56.6796C45.2719 57.0035 45.6965 57.1656 46.121 57.1656C46.5455 57.1656 46.9699 57.0035 47.2941 56.6796C47.9422 56.0314 47.9422 54.9815 47.2941 54.3335L43.775 50.8129L46.121 48.4669L48.467 50.8129C48.791 51.1369 49.2156 51.299 49.6401 51.299C50.0646 51.299 50.489 51.1369 50.8132 50.8129C51.4613 50.1648 51.4613 49.1149 50.8132 48.4669L48.4672 46.1209L50.8132 43.7749L54.3323 47.294C54.9804 47.9421 56.0303 47.9421 56.6783 47.294C57.3264 46.6458 57.3264 45.5959 56.6783 44.948L51.986 40.2556Z" fill="#039750"/>
<path d="M22.657 22.6586C23.3052 22.0105 23.3052 20.9606 22.657 20.3126L20.311 17.9654L22.657 15.6189L26.1761 19.138C26.8242 19.7861 27.8741 19.7861 28.5221 19.138C29.1703 18.4898 29.1703 17.4399 28.5221 16.792L23.8299 12.0998C23.2078 11.4776 22.1061 11.4776 21.4839 12.0998L16.7943 16.7903C16.7943 16.7903 16.7927 16.791 16.7918 16.7918C16.791 16.7926 16.791 16.7934 16.791 16.7934L12.0997 21.4855C11.4516 22.1337 11.4516 23.1836 12.0997 23.8316C12.4237 24.1555 12.8484 24.3176 13.2728 24.3176C13.6973 24.3176 14.1218 24.1555 14.4459 23.8316L17.9652 20.3117L20.311 22.6586C20.635 22.9826 21.0596 23.1447 21.4841 23.1447C21.9084 23.1447 22.3329 22.9826 22.657 22.6586Z" fill="#039750"/>
<path d="M32.3167 32.3199C33.5448 32.255 34.6887 31.7447 35.5636 30.8698C37.5046 28.9288 37.5046 25.7726 35.5636 23.8316L33.2176 21.4856C32.5695 20.8375 31.5196 20.8375 30.8716 21.4856L26.2216 26.1339C26.2054 26.1485 26.1892 26.1632 26.1761 26.1776C26.16 26.1922 26.1469 26.2069 26.134 26.223L21.484 30.8698C20.8358 31.5179 20.8358 32.5678 21.484 33.2158C22.1321 33.8639 23.182 33.8639 23.83 33.2158L27.3491 29.6967L28.5254 30.8681C29.1703 31.5162 29.1703 32.5694 28.5254 33.2158L26.1761 35.5635C25.528 36.21 25.528 37.2616 26.1761 37.9095C26.5001 38.2335 26.9248 38.3956 27.3492 38.3956C27.7737 38.3956 28.1982 38.2335 28.5223 37.9095L30.8716 35.5618C31.769 34.6626 32.2518 33.5009 32.3167 32.3199ZM32.0445 25.0045L33.2176 26.1776C33.8657 26.8241 33.8657 27.8772 33.2176 28.5236C32.9032 28.8363 32.4884 29.0097 32.0445 29.0097H32.0412C31.6006 29.0097 31.1858 28.838 30.8714 28.5221L29.6983 27.3507L32.0445 25.0045Z" fill="#039750"/>
</g>
<defs>
<clipPath id="clip0_8_196">
<rect width="73" height="73" fill="white"/>
</clipPath>
</defs>
</svg>
