<svg width="77" height="77" viewBox="0 0 77 77" fill="none" xmlns="http://www.w3.org/2000/svg">
<g clip-path="url(#clip0_8_294)">
<path d="M59.8223 32.9128C59.6025 32.6844 59.3127 32.5357 58.999 32.4902V32.533L45.7232 30.6059L39.7847 18.5149C39.433 17.8093 38.576 17.5224 37.8702 17.8741C37.5928 18.0124 37.3678 18.2374 37.2295 18.5149L31.291 30.5488L18.0152 32.4759C17.235 32.5891 16.6942 33.3134 16.8075 34.0937C16.853 34.4074 17.0016 34.6971 17.23 34.917L26.8372 44.2815L24.5674 57.5002C24.4382 58.278 24.9639 59.0132 25.7416 59.1424C26.0478 59.1933 26.3622 59.1429 26.6373 58.9991L38.5 52.7752L50.3769 59.0134C51.0754 59.3788 51.938 59.1087 52.3035 58.4103C52.4473 58.1353 52.4976 57.8207 52.4468 57.5145L50.177 44.2957L59.7842 34.9313C60.3521 34.3845 60.3693 33.4807 59.8223 32.9128ZM47.6503 42.7826C47.315 43.1082 47.1603 43.5775 47.2363 44.0388L49.1349 55.1591L39.1423 49.9059C38.7268 49.6876 38.2303 49.6876 37.8147 49.9059L27.8222 55.1591L29.7208 44.0388C29.7968 43.5775 29.6421 43.1082 29.3068 42.7826L21.2271 34.917L32.3902 33.2896C32.8545 33.2199 33.2547 32.9263 33.4608 32.5045L38.5 22.4263L43.4962 32.533C43.7023 32.9549 44.1026 33.2484 44.5669 33.3182L55.73 34.9455L47.6503 42.7826Z" fill="#F2EB6F"/>
<path d="M76.7147 36.6873L70.5336 29.0501L71.4615 19.3573C71.5071 18.7399 71.1497 18.1633 70.5764 17.9298L61.526 14.2325L57.4718 5.38192C57.207 4.80931 56.5975 4.4783 55.9729 4.56824L46.3372 5.99575L38.4003 0.285702C37.8928 -0.0949085 37.1947 -0.0949085 36.6873 0.285702L29.0501 6.46683L19.3573 5.53895C18.7363 5.49541 18.1585 5.85924 17.9298 6.43828L14.2325 15.4744L5.38192 19.5286C4.80931 19.7934 4.4783 20.4029 4.56824 21.0275L5.99575 30.6632L0.285702 38.6001C-0.0949085 39.1076 -0.0949085 39.8057 0.285702 40.3131L6.32408 47.9503L5.39619 57.6431C5.35266 58.2641 5.71649 58.8419 6.29553 59.0707L15.4744 62.7679L19.5286 71.6185C19.7934 72.1911 20.4029 72.5221 21.0275 72.4322L30.6632 71.0047L38.6001 76.7147C39.1076 77.0953 39.8057 77.0953 40.3131 76.7147L47.9503 70.6763L57.6431 71.6042C58.2605 71.6499 58.8371 71.2925 59.0707 70.7191L62.7679 61.526L71.6185 57.4718C72.1911 57.207 72.5219 56.5975 72.4322 55.9729L71.0047 46.3372L76.7147 38.4003C77.0953 37.8928 77.0953 37.1949 76.7147 36.6873ZM68.3066 45.1524C68.0973 45.4515 68.0104 45.8192 68.064 46.1802L69.3916 55.3163L60.9835 59.1563C60.6509 59.3103 60.3902 59.5863 60.2555 59.9272L56.8437 68.4922L47.6506 67.6214C47.2867 67.5881 46.9241 67.6953 46.637 67.9212L39.3853 73.6313L31.8623 68.2781C31.6212 68.1036 31.3318 68.0088 31.0343 68.0069H30.8345L21.6984 69.3345L17.8584 60.9407C17.7044 60.6081 17.4283 60.3474 17.0875 60.2127L8.52245 56.8009L9.39323 47.6077C9.4266 47.2439 9.31936 46.8813 9.09345 46.5942L3.3834 39.3424L8.73657 31.8194C8.94588 31.5204 9.03278 31.1526 8.97925 30.7916L7.65166 21.6556L16.0597 17.8155C16.3923 17.6616 16.653 17.3855 16.7877 17.0447L20.1995 8.47962L29.3927 9.3504C29.7565 9.38377 30.1191 9.27653 30.4062 9.05063L37.658 3.34058L45.181 8.69375C45.48 8.90306 45.8478 8.98996 46.2088 8.93643L55.3448 7.60884L59.1848 16.0169C59.3388 16.3495 59.6149 16.6102 59.9557 16.7449L68.5208 20.1567L67.65 29.3498C67.6166 29.7137 67.7239 30.0763 67.9498 30.3634L73.6598 37.6151L68.3066 45.1524Z" fill="#F2EB6F"/>
</g>
<defs>
<clipPath id="clip0_8_294">
<rect width="77" height="77" fill="white"/>
</clipPath>
</defs>
</svg>
