<svg width="127" height="127" viewBox="0 0 127 127" fill="none" xmlns="http://www.w3.org/2000/svg">
<path d="M55.2284 93.8696C57.5156 93.8696 59.3698 92.0154 59.3698 89.7282C59.3698 87.441 57.5156 85.5868 55.2284 85.5868C52.9411 85.5868 51.087 87.441 51.087 89.7282C51.087 92.0154 52.9411 93.8696 55.2284 93.8696Z" fill="black"/>
<path d="M55.2284 110.435C57.5156 110.435 59.3698 108.581 59.3698 106.293C59.3698 104.006 57.5156 102.152 55.2284 102.152C52.9411 102.152 51.087 104.006 51.087 106.293C51.087 108.581 52.9411 110.435 55.2284 110.435Z" fill="black"/>
<path d="M71.7937 110.435C74.0809 110.435 75.9351 108.581 75.9351 106.293C75.9351 104.006 74.0809 102.152 71.7937 102.152C69.5064 102.152 67.6523 104.006 67.6523 106.293C67.6523 108.581 69.5064 110.435 71.7937 110.435Z" fill="black"/>
<path d="M71.7937 93.8696C74.0809 93.8696 75.9351 92.0154 75.9351 89.7282C75.9351 87.441 74.0809 85.5868 71.7937 85.5868C69.5064 85.5868 67.6523 87.441 67.6523 89.7282C67.6523 92.0154 69.5064 93.8696 71.7937 93.8696Z" fill="black"/>
<path d="M42.8042 30.3696C33.6701 30.3696 26.2389 37.8009 26.2389 46.9349C26.2389 56.069 33.6701 63.5 42.8042 63.5C51.9383 63.5 59.3695 56.0688 59.3695 46.9347C59.3695 37.8006 51.9383 30.3696 42.8042 30.3696ZM42.8042 55.2175C38.2372 55.2175 34.5217 51.502 34.5217 46.9349C34.5217 42.3679 38.2372 38.6524 42.8042 38.6524C47.3712 38.6524 51.0867 42.3679 51.0867 46.9349C51.087 51.5017 47.3712 55.2175 42.8042 55.2175Z" fill="black"/>
<path d="M84.2174 30.3696C75.0833 30.3696 67.652 37.8009 67.652 46.9349C67.652 56.069 75.0833 63.5 84.2174 63.5C93.3514 63.5 100.783 56.0688 100.783 46.9347C100.783 37.8006 93.3514 30.3696 84.2174 30.3696ZM84.2174 55.2175C79.6503 55.2175 75.9348 51.502 75.9348 46.9349C75.9348 42.3679 79.6503 38.6524 84.2174 38.6524C88.7844 38.6524 92.4999 42.3679 92.4999 46.9349C92.4999 51.5017 88.7844 55.2175 84.2174 55.2175Z" fill="black"/>
<path d="M119.361 73.4554L114.799 70.8211C116.476 65.2619 117.348 59.5305 117.348 53.8368C117.348 24.1513 93.1964 0 63.5107 0C49.2299 0 35.6726 6.12949 25.3363 17.2591C15.3824 27.9767 9.67384 42.3151 9.67384 56.5978C9.67384 61.5345 10.355 66.4227 11.6701 71.1277L7.63812 73.4556C1.70583 76.8804 -0.334107 84.4939 3.09092 90.4267L11.3735 104.773C14.7982 110.705 22.412 112.745 28.3448 109.32L35.431 105.229C38.6474 117.733 50.0169 127 63.5107 127C77.0005 127 88.3677 117.738 91.5874 105.24L98.655 109.32C104.604 112.755 112.194 110.718 115.626 104.773L123.909 90.427C127.334 84.4939 125.294 76.8806 119.361 73.4554ZM24.2037 102.147C22.2258 103.289 19.6885 102.609 18.5467 100.631L10.2642 86.2853C9.12218 84.3077 9.80233 81.7699 11.78 80.6281L14.5591 79.0235C18.0975 86.7494 23.4169 93.4951 30.0546 98.7693L24.2037 102.147ZM63.5107 118.717C52.0931 118.717 42.8042 109.429 42.8042 98.011C42.8042 86.5934 52.0931 77.3046 63.5107 77.3046C74.9283 77.3046 84.2171 86.5934 84.2171 98.011C84.2171 109.429 74.9285 118.717 63.5107 118.717ZM91.8862 92.0676C89.1369 78.9241 77.4591 69.0218 63.5109 69.0218C49.5146 69.0218 37.8036 78.992 35.1066 92.2035C24.3937 83.6283 17.9566 70.5215 17.9566 56.5978C17.9566 30.86 39.2438 8.28253 63.5109 8.28253C88.6296 8.28253 109.065 28.7181 109.065 53.8368C109.065 68.4413 102.234 83.223 91.8862 92.0676ZM116.736 86.2853L108.453 100.631C107.308 102.614 104.779 103.291 102.796 102.147L96.8569 98.7182C103.334 93.3192 108.346 86.3121 111.836 78.6743L115.22 80.6281C117.198 81.7701 117.878 84.3079 116.736 86.2853Z" fill="black"/>
</svg>
