<svg width="71" height="71" viewBox="0 0 71 71" fill="none" xmlns="http://www.w3.org/2000/svg">
<path d="M35.5 71C15.8939 71 0 55.1061 0 35.5C0 15.8939 15.8939 0 35.5 0C55.1061 0 71 15.8939 71 35.5C71 55.1061 55.1061 71 35.5 71ZM35.5 67.45C53.1455 67.45 67.45 53.1455 67.45 35.5C67.45 17.8545 53.1455 3.55 35.5 3.55C17.8545 3.55 3.55 17.8545 3.55 35.5C3.55 53.1455 17.8545 67.45 35.5 67.45ZM46.6699 25.3699C47.3631 24.6767 48.4869 24.6767 49.1801 25.3699C49.8733 26.0631 49.8733 27.1869 49.1801 27.8801L31.4301 45.6301C30.7369 46.3233 29.6131 46.3233 28.9199 45.6301L21.8199 38.5301C21.1267 37.8369 21.1267 36.7131 21.8199 36.0199C22.5131 35.3267 23.6369 35.3267 24.3301 36.0199L30.175 41.8648L46.6699 25.3699Z" fill="black"/>
</svg>
