<svg width="72" height="73" viewBox="0 0 72 73" fill="none" xmlns="http://www.w3.org/2000/svg">
<g clip-path="url(#clip0_8_246)">
<path d="M1.81241 66.341H47.4377C48.1612 66.341 48.7637 65.7577 48.7637 65.0268C48.7637 64.2959 48.1612 63.7126 47.4377 63.7126H3.13837V3.09244H39.3054L53.5412 17.122V46.8258C53.5412 47.5567 54.1438 48.1399 54.8671 48.1399C55.5905 48.1399 56.193 47.5567 56.193 46.8258V16.5873C56.193 16.2163 56.0622 15.8821 55.7961 15.6199L40.8115 0.85228C40.5547 0.5992 40.2231 0.464111 39.8825 0.464111H1.81241C1.08907 0.464111 0.48645 1.04737 0.48645 1.77827V65.0268C0.48645 65.7577 1.08907 66.341 1.81241 66.341Z" fill="#0C59A0" stroke="#0C59A0"/>
<path d="M40.812 0.852526C40.4475 0.493197 39.8559 0.323514 39.343 0.590313C38.8165 0.801213 38.5566 1.28034 38.5566 1.77804V16.5871C38.5566 17.3179 39.1592 17.9013 39.8825 17.9013H54.8672C55.5905 17.9013 56.1931 17.3179 56.1931 16.5871C56.1931 16.1849 56.0249 15.7791 55.6761 15.5427L40.812 0.852526ZM41.2085 4.92917L51.668 15.2729H41.2085V4.92917Z" fill="#0C59A0" stroke="#0C59A0"/>
<path d="M13.2465 30.2378C13.2465 36.5141 18.4267 41.5625 24.7721 41.5625C31.0767 41.5625 36.2556 36.5129 36.2556 30.2378V20.2273C36.2556 19.4963 35.6531 18.9131 34.9296 18.9131H14.5724C13.8491 18.9131 13.2465 19.4963 13.2465 20.2273V30.2378ZM15.8984 30.2378V21.5414H33.6037V30.2378C33.6037 35.0485 29.6327 38.9342 24.7721 38.9342C19.868 38.9342 15.8984 35.0471 15.8984 30.2378Z" fill="#0C59A0" stroke="#0C59A0"/>
<path d="M17.5946 21.5417H31.9076C32.689 21.5417 33.2336 20.9423 33.2336 20.2276V13.8158C33.2336 9.53105 29.7384 6.04858 25.4016 6.04858H24.1005C19.8076 6.04858 16.2686 9.5293 16.2686 13.8158V20.2276C16.2686 20.9585 16.8713 21.5417 17.5946 21.5417ZM30.5816 13.8158V18.9134H18.9206V13.8158C18.9206 10.9869 21.2584 8.67691 24.1005 8.67691H25.4016C28.2834 8.67691 30.5816 10.9846 30.5816 13.8158Z" fill="#0C59A0" stroke="#0C59A0"/>
<path d="M25.3804 29.5414L25.355 29.5521L25.331 29.5656C25.1422 29.6718 24.9621 29.8253 24.8255 30.0132C24.7045 29.8326 24.5387 29.678 24.339 29.5656L24.3099 29.5492L24.2788 29.5369C23.8533 29.3691 23.5796 28.9415 23.5796 28.4593C23.5796 27.7685 24.1255 27.2088 24.814 27.2088C25.5178 27.2088 26.0905 27.7838 26.0905 28.4593C26.0905 28.9251 25.7882 29.3691 25.3804 29.5414ZM23.7227 35.2752H25.9053C26.6287 35.2752 27.2313 34.6919 27.2313 33.961V31.4797C28.1568 30.7638 28.7424 29.6584 28.7424 28.4593C28.7424 26.3143 26.9566 24.6218 24.814 24.6218C22.6636 24.6218 20.9277 26.322 20.9277 28.4593C20.9277 29.6474 21.4684 30.7571 22.3968 31.4793V33.961C22.3968 34.6919 22.9993 35.2752 23.7227 35.2752Z" fill="#0C59A0" stroke="#0C59A0"/>
<path d="M7.26902 46.8575H42.2751C42.9984 46.8575 43.601 46.2743 43.601 45.5433C43.601 44.8125 42.9984 44.2292 42.2751 44.2292H7.26902C6.48763 44.2292 5.94305 44.8286 5.94305 45.5433C5.94305 46.2581 6.48763 46.8575 7.26902 46.8575Z" fill="#0C59A0" stroke="#0C59A0"/>
<path d="M7.26902 53.9723H42.2751C42.9984 53.9723 43.601 53.389 43.601 52.6582C43.601 51.9272 42.9984 51.344 42.2751 51.344H7.26902C6.48763 51.344 5.94305 51.9434 5.94305 52.6582C5.94305 53.373 6.48763 53.9723 7.26902 53.9723Z" fill="#0C59A0" stroke="#0C59A0"/>
<path d="M7.26902 61.0458H42.2751C42.9984 61.0458 43.601 60.4626 43.601 59.7317C43.601 59.0008 42.9984 58.4175 42.2751 58.4175H7.26902C6.48763 58.4175 5.94305 59.0169 5.94305 59.7317C5.94305 60.4464 6.48763 61.0458 7.26902 61.0458Z" fill="#0C59A0" stroke="#0C59A0"/>
<path d="M44.223 58.5736C44.223 66.0047 50.3652 72.0494 57.8473 72.0494C65.3704 72.0494 71.5136 66.0058 71.5136 58.5736C71.5136 51.1817 65.3693 45.1392 57.8473 45.1392C50.3662 45.1392 44.223 51.1827 44.223 58.5736ZM46.875 58.5736C46.875 52.6445 51.8129 47.7675 57.8473 47.7675C63.9249 47.7675 68.8616 52.6457 68.8616 58.5736C68.8616 64.5439 63.9237 69.421 57.8473 69.421C51.8141 69.421 46.875 64.5451 46.875 58.5736Z" fill="#0C59A0" stroke="#0C59A0"/>
<path d="M54.4474 64.8925H55.8497V65.8949C55.8497 66.6258 56.4524 67.209 57.1757 67.209C57.899 67.209 58.5016 66.6258 58.5016 65.8949V64.8925H58.7707C60.8792 64.8925 62.6151 63.1924 62.6151 61.0964C62.6151 59.0083 60.887 57.2589 58.7707 57.2589H56.9658C56.304 57.2589 55.7733 56.7254 55.7733 56.0912C55.7733 55.7556 55.8965 55.4704 56.0899 55.2798C56.3323 55.041 56.6284 54.9234 56.9658 54.9234H58.3509H61.2891C62.0124 54.9234 62.6151 54.3401 62.6151 53.6092C62.6151 52.8783 62.0124 52.295 61.2891 52.295H59.6769V51.2927C59.6769 50.5619 59.0743 49.9785 58.3509 49.9785C57.6276 49.9785 57.025 50.5619 57.025 51.2927V52.295H56.9658C55.909 52.295 54.9547 52.7213 54.2441 53.3749L54.2318 53.3862L54.2202 53.3984C53.5568 54.099 53.1214 55.0428 53.1214 56.0912C53.1214 58.1872 54.8574 59.8873 56.9658 59.8873H58.7707C59.4169 59.8873 59.9631 60.4467 59.9631 61.0964C59.9631 61.7306 59.4325 62.2643 58.7707 62.2643H57.1757H54.4474C53.7241 62.2643 53.1214 62.8475 53.1214 63.5784C53.1214 64.3093 53.7241 64.8925 54.4474 64.8925Z" fill="#0C59A0" stroke="#0C59A0"/>
</g>
<defs>
<clipPath id="clip0_8_246">
<rect width="72" height="73" fill="white"/>
</clipPath>
</defs>
</svg>
