<svg width="126" height="126" viewBox="0 0 126 126" fill="none" xmlns="http://www.w3.org/2000/svg">
<g clip-path="url(#clip0_8_164)">
<path d="M97.8107 51.7049C101.275 50.7777 107.379 48.9402 109.335 47.0511C110.906 45.5331 111.284 43.3067 110.32 41.2407C108.914 38.2265 105.234 36.5697 100.943 37.022C98.0943 37.3219 91.8096 39.1904 85.1558 41.1688C79.6429 42.8079 73.0417 44.7705 69.3953 45.4623V43.4061C69.3953 43.074 69.3698 42.7478 69.3208 42.4294L76.1187 38.3506C78.6861 36.8103 80.2808 33.9937 80.2808 30.9999V24.3777L93.0527 3.09148C93.6326 2.12486 93.3191 0.871122 92.3525 0.2912C91.3859 -0.288723 90.1321 0.0245058 89.5522 0.991135L76.4897 22.7621C76.2994 23.0794 76.199 23.4424 76.199 23.8122V30.9999C76.199 32.5679 75.3638 34.0435 74.0189 34.8501L67.4324 38.802C66.7594 38.1541 65.9457 37.652 65.0414 37.3467V19.458C65.0414 18.3309 64.1279 17.417 63.0004 17.417C61.8729 17.417 60.9594 18.3309 60.9594 19.458V37.3467C60.0553 37.652 59.2414 38.1538 58.5684 38.802L51.9819 34.8501C50.6372 34.0432 49.8018 32.5679 49.8018 30.9999V23.8122C49.8018 23.4424 49.7014 23.0794 49.5111 22.7621L36.4486 0.991135C35.8681 0.0245058 34.6149 -0.288451 33.6483 0.2912C32.6817 0.871122 32.3682 2.12486 32.9481 3.09148L45.72 24.3777V30.9999C45.72 33.9937 47.3147 36.8103 49.8821 38.3506L56.68 42.4294C56.6311 42.748 56.6055 43.074 56.6055 43.4061V45.4623C52.9591 44.7705 46.3579 42.8079 40.845 41.1688C34.1912 39.1904 27.9065 37.3219 25.0581 37.022C20.7684 36.5708 17.0872 38.2268 15.6808 41.2407C14.7171 43.3065 15.0946 45.5328 16.6659 47.0511C18.6215 48.9402 24.7255 50.7777 28.1901 51.7049C33.924 53.2394 39.4127 54.1554 42.8721 54.1554C45.6471 54.1554 48.6087 53.8455 51.2357 53.4561L46.6559 57.2725C44.8081 58.8125 43.4292 60.8329 42.6683 63.1153L37.2313 79.426L20.042 100.913C19.3377 101.793 19.4806 103.077 20.3607 103.782C20.7371 104.083 21.1875 104.229 21.6346 104.229C22.2333 104.229 22.8265 103.967 23.2296 103.463L40.6463 81.6921C40.7968 81.5041 40.9127 81.291 40.9889 81.0627L46.5408 64.4066C47.0614 62.845 48.0049 61.4626 49.2692 60.4089L56.6052 54.2956V55.7532L50.7295 63.0978C48.9029 65.3808 47.8968 68.2486 47.8968 71.173V86.4921L30.6744 123.09C30.1944 124.11 30.6322 125.326 31.6522 125.805C31.933 125.938 32.2286 126 32.5198 126C33.2856 126 34.02 125.567 34.3678 124.828L51.7846 87.8171C51.9125 87.5452 51.9789 87.2486 51.9789 86.9482V71.1727C51.9789 69.1717 52.6671 67.2096 53.917 65.6475L56.6052 62.2872V69.5312C56.6052 75.6594 59.3546 80.2806 63.0004 80.2806C66.6462 80.2806 69.3956 75.6594 69.3956 69.5312V62.2872L72.0838 65.6475C73.3337 67.2096 74.0219 69.1717 74.0219 71.1724V86.9479C74.0219 87.2483 74.0883 87.545 74.2162 87.8168L91.633 124.827C91.9808 125.567 92.715 126 93.481 126C93.772 126 94.0678 125.937 94.3486 125.805C95.3686 125.325 95.8062 124.109 95.3264 123.09L78.104 86.4918V71.1727C78.104 68.2483 77.0979 65.3805 75.2713 63.0976L69.3956 55.7529V54.2953L76.7316 60.4086C77.9959 61.4623 78.9394 62.8448 79.46 64.406L85.0119 81.0621C85.0881 81.2904 85.204 81.5038 85.3545 81.6916L102.771 103.462C103.174 103.966 103.768 104.229 104.366 104.229C104.813 104.229 105.264 104.082 105.64 103.781C106.52 103.077 106.663 101.793 105.959 100.912L88.7696 79.4255L83.3325 63.1144C82.5716 60.8323 81.1927 58.812 79.3449 57.272L74.7651 53.4555C77.3921 53.8449 80.3537 54.1549 83.1287 54.1549C86.5878 54.1554 92.0766 53.2394 97.8107 51.7049ZM86.319 45.0816C92.5024 43.243 98.8963 41.3419 101.37 41.0817C104.248 40.7783 106.081 41.8102 106.621 42.9666C106.841 43.4382 106.799 43.8246 106.499 44.1152C104.848 45.7102 90.5787 50.0734 83.1287 50.0734C79.5724 50.0734 75.5747 49.4992 72.5611 48.9489C75.9702 48.1358 80.5943 46.7838 86.319 45.0816ZM60.687 54.4276V49.3667C61.4049 49.6461 62.1845 49.8013 63.0001 49.8013C63.8157 49.8013 64.5954 49.6461 65.3133 49.3667V54.4276H60.687ZM65.3133 58.5096V63.1359H60.687V58.5096H65.3133ZM63.0001 41.0929C64.2756 41.0929 65.3133 42.1306 65.3133 43.4061C65.3133 44.6816 64.2756 45.7192 63.0001 45.7192C61.7246 45.7192 60.687 44.6816 60.687 43.4061C60.687 42.1306 61.7246 41.0929 63.0001 41.0929ZM19.5016 44.1152C19.2009 43.8246 19.1595 43.4382 19.3796 42.9666C19.8543 41.949 21.3303 41.0281 23.6394 41.0281C23.9543 41.0281 24.2849 41.0453 24.6303 41.0817C27.104 41.3419 33.4978 43.243 39.6813 45.0816C45.406 46.7838 50.0301 48.1358 53.4394 48.9489C50.4258 49.4989 46.4281 50.0734 42.8718 50.0734C35.4215 50.0734 21.1526 45.7105 19.5016 44.1152ZM63.0001 76.1985C62.4243 76.1985 60.687 73.8339 60.687 69.5312V67.218H65.3133V69.5312C65.3133 73.8339 63.576 76.1985 63.0001 76.1985Z" fill="black"/>
</g>
<defs>
<clipPath id="clip0_8_164">
<rect width="126" height="126" fill="white"/>
</clipPath>
</defs>
</svg>
