<svg width="75" height="73" viewBox="0 0 75 73" fill="none" xmlns="http://www.w3.org/2000/svg">
<g clip-path="url(#clip0_32_79)">
<path d="M73.9919 51.5188L66.2653 45.2851C66.0716 45.1277 65.8506 45.0224 65.6342 44.9048C65.7905 44.4938 65.8878 44.0523 65.8878 43.5866C65.8878 41.5244 64.2108 39.8522 62.1412 39.8522C60.0687 39.8522 58.3915 41.5244 58.3915 43.5866C58.3915 44.1387 58.5188 44.6587 58.7345 45.13H48.8342C45.8924 43.1124 42.1831 41.8987 38.1407 41.8987C29.5148 41.8987 22.3839 47.3929 21.0897 54.5661C17.1969 55.1417 13.6017 58.714 13.6017 63.5024C13.6017 65.4277 12.1147 67.6546 10.5849 68.4366C9.55493 68.9631 9.2636 68.9666 1.00995 69.3614C0.471108 69.3881 0.0264331 69.8192 0.00102737 70.3663C-0.0258996 70.949 0.423492 71.4459 1.00995 71.4726C8.39509 71.8259 9.80549 71.9481 11.3084 71.4988C14.0765 70.6713 16.8926 68.0333 17.4699 63.6229C17.4979 63.4091 17.6606 62.2992 18.1492 61.4506C19.1962 59.6326 20.9161 59.4341 21.1169 59.3821C22.056 64.2602 25.6988 68.3296 30.6699 70.4057C30.6699 70.4096 30.6677 70.413 30.6677 70.4169C30.6677 71.8171 31.8054 72.9519 33.2117 72.9519H52.6109C54.0165 72.9519 55.1549 71.8171 55.1549 70.4169C55.1549 69.0167 54.0167 67.882 52.6109 67.882H50.1187L62.7272 57.7148L72.6529 56.3258C73.7291 56.1747 74.6132 55.4024 74.9014 54.359C75.1923 53.316 74.8343 52.2008 73.9919 51.5188Z" fill="black"/>
</g>
<defs>
<clipPath id="clip0_32_79">
<rect width="75" height="73" fill="white"/>
</clipPath>
</defs>
</svg>
