<svg width="97" height="72" viewBox="0 0 97 72" fill="none" xmlns="http://www.w3.org/2000/svg">
<path d="M47.9578 0C37.3452 0 28.7124 8.63754 28.7124 19.2518C28.7124 23.5438 30.1409 27.4987 32.524 30.7023C27.8304 33.9847 25 38.8784 25 44.1233V71.4802H30.3551V44.1217C30.3551 40.3873 32.6169 36.8466 36.3466 34.5643C39.5786 37.023 43.5934 38.4988 47.9578 38.4988C52.3774 38.4988 56.4394 36.9883 59.6935 34.4714C63.5161 36.7536 65.8314 40.329 65.8314 44.1217V71.4786H71.1866V44.1217C71.1866 38.7933 68.2901 33.8587 63.4846 30.5795C65.8141 27.3963 67.2064 23.4855 67.2064 19.2502C67.208 8.63754 58.5721 0 47.9578 0ZM47.9578 33.1468C40.2984 33.1468 34.0691 26.9112 34.0691 19.2518C34.0691 11.5892 40.2984 5.35672 47.9578 5.35672C55.6188 5.35672 61.8529 11.5892 61.8529 19.2518C61.8529 26.9112 55.6188 33.1468 47.9578 33.1468Z" fill="black"/>
<path d="M5.35515 39.7903C5.35515 38.1475 6.29387 36.5819 7.84214 35.4306C9.8267 36.7505 12.2019 37.5254 14.7582 37.5254C21.6789 37.5254 27.3097 31.8993 27.3097 24.9802C27.3097 18.0579 21.6789 12.4286 14.7582 12.4286C7.83899 12.4286 2.21294 18.0579 2.21294 24.9802C2.21294 27.3884 2.92643 29.6155 4.10614 31.5261C1.51992 33.6665 0 36.6323 0 39.7887V55.6715H5.35515V39.7903ZM14.7566 17.7869C18.7257 17.7869 21.9514 21.0142 21.9514 24.9817C21.9514 28.9446 18.7241 32.1702 14.7566 32.1702C10.7906 32.1702 7.56651 28.943 7.56651 24.9817C7.56651 21.0142 10.7922 17.7869 14.7566 17.7869Z" fill="black"/>
<path d="M92.685 31.4395C93.8332 29.5479 94.531 27.3507 94.531 24.9818C94.531 18.0595 88.9018 12.4303 81.9842 12.4303C75.0634 12.4303 69.4326 18.0595 69.4326 24.9818C69.4326 31.901 75.0634 37.527 81.9842 37.527C84.5767 37.527 86.9897 36.7364 88.99 35.3834C90.5808 36.5332 91.5431 38.1208 91.5431 39.792V55.6747H96.8983V39.7904C96.8998 36.5789 95.3374 33.5768 92.685 31.4395ZM81.9842 32.1719C78.0151 32.1719 74.7878 28.9446 74.7878 24.9834C74.7878 21.0143 78.0166 17.7886 81.9842 17.7886C85.9501 17.7886 89.1742 21.0159 89.1742 24.9834C89.1742 28.9446 85.9501 32.1719 81.9842 32.1719Z" fill="black"/>
</svg>
