<svg width="84" height="84" viewBox="0 0 84 84" fill="none" xmlns="http://www.w3.org/2000/svg">
<g clip-path="url(#clip0_13_343)">
<path d="M58.8363 30.8052C62.1841 30.8015 65.3937 29.4706 67.7609 27.1047C70.1282 24.7388 71.4597 21.5309 71.4634 18.185V12.576C71.4634 9.22892 70.1331 6.01892 67.765 3.65218C65.397 1.28543 62.1852 -0.0441895 58.8363 -0.0441895C55.4873 -0.0441895 52.2756 1.28543 49.9075 3.65218C47.5395 6.01892 46.2091 9.22892 46.2091 12.576V18.185C46.2128 21.5309 47.5444 24.7388 49.9116 27.1047C52.2789 29.4706 55.4885 30.8015 58.8363 30.8052ZM49.0151 12.576C49.0151 9.97272 50.0499 7.47605 51.8917 5.63525C53.7335 3.79445 56.2315 2.7603 58.8363 2.7603C61.441 2.7603 63.939 3.79445 65.7808 5.63525C67.6227 7.47605 68.6574 9.97272 68.6574 12.576V18.185C68.6574 20.7883 67.6227 23.2849 65.7808 25.1257C63.939 26.9665 61.441 28.0007 58.8363 28.0007C56.2315 28.0007 53.7335 26.9665 51.8917 25.1257C50.0499 23.2849 49.0151 20.7883 49.0151 18.185V12.576Z" fill="#0290BD"/>
<path d="M71.4633 33.6096H53.2241V36.4141H53.6773L56.0049 42.2306L53.2241 72.7448C53.205 72.9501 53.2315 73.1571 53.3015 73.351C53.3716 73.5449 53.4836 73.7209 53.6296 73.8666L57.8386 78.0734C58.1017 78.3362 58.4585 78.4839 58.8305 78.4839C59.2026 78.4839 59.5594 78.3362 59.8225 78.0734L64.0315 73.8666C64.1775 73.7209 64.2895 73.5449 64.3596 73.351C64.4296 73.1571 64.4561 72.9501 64.437 72.7448L61.6674 42.2306L63.995 36.4141H71.4633C74.0671 36.4171 76.5634 37.4522 78.4046 39.2923C80.2458 41.1325 81.2815 43.6274 81.2844 46.2298V81.2859H74.2693V46.2298H71.4633V81.2859H46.209V75.6769H43.403V81.2859H34.9849V84.0904H82.6875C83.0596 84.0904 83.4164 83.9427 83.6795 83.6797C83.9427 83.4167 84.0905 83.06 84.0905 82.6881V46.2298C84.0868 42.8839 82.7552 39.676 80.388 37.3101C78.0207 34.9441 74.8111 33.6133 71.4633 33.6096ZM60.9729 36.4141L59.2893 40.6208H58.383L56.6994 36.4141H60.9729ZM58.8362 75.0964L56.0834 72.3452L58.7141 43.4253H58.9582L61.5889 72.3452L58.8362 75.0964Z" fill="#0290BD"/>
<path d="M17.2922 79.7698L24.543 84.0327C24.7586 84.1594 25.0042 84.2262 25.2543 84.2262C25.5044 84.2262 25.75 84.1594 25.9656 84.0327L33.2164 79.7698C38.4726 76.6637 42.8303 72.2451 45.8619 66.9475C48.8935 61.65 50.4948 55.6557 50.5086 49.5529V33.7454C50.5086 33.3735 50.3608 33.0168 50.0977 32.7539C49.8346 32.4909 49.4777 32.3431 49.1056 32.3431C41.2155 32.3262 33.5408 29.7693 27.2185 25.0515L26.0961 24.2101C25.8533 24.0281 25.5579 23.9297 25.2543 23.9297C24.9507 23.9297 24.6554 24.0281 24.4125 24.2101L23.2901 25.0515C16.9681 29.7698 9.29318 32.3267 1.40302 32.3431C1.03091 32.3431 0.674051 32.4909 0.410934 32.7539C0.147817 33.0168 0 33.3735 0 33.7454V49.5529C0.0138204 55.6557 1.61512 61.65 4.64672 66.9475C7.67833 72.2451 12.0361 76.6637 17.2922 79.7698ZM2.80603 35.121C10.8183 34.819 18.5493 32.0897 24.9737 27.2951L25.2543 27.0861L25.5349 27.2951C31.9593 32.0897 39.6904 34.819 47.7026 35.121V49.5529C47.6905 55.1678 46.2177 60.683 43.4289 65.5573C40.64 70.4315 36.631 74.4972 31.7952 77.3552L25.2543 81.1973L18.7134 77.3552C13.8777 74.4972 9.86859 70.4315 7.07975 65.5573C4.2909 60.683 2.81814 55.1678 2.80603 49.5529V35.121Z" fill="#0290BD"/>
<path d="M20.047 74.7992L24.4525 77.3905C24.6685 77.5163 24.9139 77.5825 25.1638 77.5825C25.4138 77.5825 25.6592 77.5163 25.8752 77.3905L30.2806 74.8006C34.696 72.1913 38.3566 68.4795 40.9031 64.0293C43.4497 59.5792 44.7947 54.5437 44.8061 49.4171V38.8484C44.8059 38.5082 44.682 38.1797 44.4574 37.924C44.2329 37.6684 43.923 37.503 43.5855 37.4588C37.2866 36.6238 31.2545 34.3906 25.9313 30.923C25.7031 30.7739 25.4364 30.6946 25.1638 30.6946C24.8913 30.6946 24.6246 30.7739 24.3964 30.923C19.073 34.3902 13.041 36.6233 6.74223 37.4588C6.40473 37.503 6.09483 37.6684 5.87026 37.924C5.6457 38.1797 5.52178 38.5082 5.52161 38.8484V49.4171C5.53284 54.5435 6.87777 59.5789 9.42436 64.0289C11.9709 68.4788 15.6316 72.1904 20.047 74.7992ZM8.32764 40.06C14.3037 39.1012 20.0278 36.9587 25.1638 33.7583C30.2999 36.9587 36.024 39.1012 42.0001 40.06V49.4157C41.9903 54.0542 40.7736 58.6103 38.4695 62.6367C36.1655 66.6631 32.8532 70.0214 28.858 72.3817L25.1638 74.5552L21.4683 72.3817C17.4734 70.0215 14.1614 66.6635 11.8575 62.6373C9.55368 58.6111 8.33723 54.0552 8.32764 49.4171V40.06Z" fill="#0290BD"/>
<path d="M26.5668 37.8164H23.7607V40.6209H26.5668V37.8164Z" fill="#0290BD"/>
<path d="M13.9397 42.0232H11.1337V44.8277H13.9397V42.0232Z" fill="#0290BD"/>
<path d="M13.9397 51.8389H11.1337V54.6434H13.9397V51.8389Z" fill="#0290BD"/>
<path d="M39.194 42.0232H36.3879V44.8277H39.194V42.0232Z" fill="#0290BD"/>
<path d="M39.194 51.8389H36.3879V54.6434H39.194V51.8389Z" fill="#0290BD"/>
<path d="M18.1487 60.2522H15.3427V63.0567H18.1487V60.2522Z" fill="#0290BD"/>
<path d="M34.9849 60.2522H32.1788V63.0567H34.9849V60.2522Z" fill="#0290BD"/>
<path d="M26.5668 67.2634H23.7607V70.0679H26.5668V67.2634Z" fill="#0290BD"/>
</g>
<defs>
<clipPath id="clip0_13_343">
<rect width="84" height="84" fill="white"/>
</clipPath>
</defs>
</svg>
