<svg width="56" height="73" viewBox="0 0 56 73" fill="none" xmlns="http://www.w3.org/2000/svg">
<path d="M38.4333 4.86667V5.36667H38.9333H54.75H54.7505C54.7505 5.36667 54.7506 5.36667 54.7506 5.36667C55.1461 5.36682 55.4668 5.68762 55.4667 6.08322V6.08333V71.7833V71.7838C55.4666 72.1794 55.1458 72.5001 54.7501 72.5H1.21667H1.21617C0.820592 72.4999 0.49991 72.1791 0.5 71.7834V6.08333L0.5 6.08284C0.5 6.0828 0.5 6.08276 0.5 6.08273C0.500151 5.6872 0.820951 5.36658 1.21655 5.36667H1.21667H17.0333H17.5333V4.86667V1.21667V1.21617C17.5333 1.21613 17.5333 1.2161 17.5333 1.21606C17.5335 0.820532 17.8543 0.49991 18.2499 0.5H18.25H37.7167L37.7172 0.5C37.7172 0.5 37.7172 0.5 37.7173 0.5C38.1128 0.500152 38.4334 0.820951 38.4333 1.21655V1.21667V4.86667ZM19.4667 1.93333H18.9667V2.43333V9.73333V10.2333H19.4667H36.5H37V9.73333V2.43333V1.93333H36.5H19.4667ZM53.5333 71.0667H54.0333V70.5667V7.3V6.8H53.5333H38.9333H38.4333V7.3V10.95V10.9505C38.4333 10.9505 38.4333 10.9506 38.4333 10.9506C38.4332 11.3461 38.1124 11.6668 37.7168 11.6667H37.7167H18.25H18.2495C18.2495 11.6667 18.2494 11.6667 18.2494 11.6667C17.8539 11.6665 17.5332 11.3457 17.5333 10.9501V10.95V7.3V6.8H17.0333H2.43333H1.93333V7.3V70.5667V71.0667H2.43333H53.5333Z" fill="#E2800D" stroke="#E2800D"/>
<path d="M31.6334 55.9666H4.8667V58.3999H31.6334V55.9666Z" fill="#E2800D"/>
<path d="M51.1 55.9666H34.0667V58.3999H51.1V55.9666Z" fill="#E2800D"/>
<path d="M51.1 60.8333H4.8667V63.2666H51.1V60.8333Z" fill="#E2800D"/>
<path d="M24.3334 65.7H4.8667V68.1333H24.3334V65.7Z" fill="#E2800D"/>
<path d="M51.0999 65.7H26.7666V68.1333H51.0999V65.7Z" fill="#E2800D"/>
<path d="M13.384 35.2834H13.3834H6.08337C5.41161 35.2833 4.86685 35.8278 4.8667 36.4995V36.5001V52.3168C4.86655 52.9885 5.41101 53.5333 6.08276 53.5334H6.08337H13.3834C14.0551 53.5336 14.5999 52.9891 14.6 52.3174V52.3168V36.5001C14.6002 35.8284 14.0557 35.2836 13.384 35.2834ZM12.1667 51.1001H7.30003V37.7168H12.1667V51.1001Z" fill="#E2800D"/>
<path d="M25.5506 30.4167H25.55H18.25C17.5782 30.4166 17.0335 30.9611 17.0333 31.6328V31.6334V52.3167C17.0332 52.9885 17.5776 53.5333 18.2494 53.5334H18.25H25.55C26.2217 53.5336 26.7665 52.9891 26.7667 52.3174V52.3167V31.6334C26.7668 30.9617 26.2224 30.4169 25.5506 30.4167ZM24.3333 51.1001H19.4667V32.8501H24.3333V51.1001Z" fill="#E2800D"/>
<path d="M37.7172 25.55H37.7166H30.4166C29.7449 25.5499 29.2001 26.0944 29.2 26.7661V26.7667V52.3167C29.1998 52.9885 29.7443 53.5332 30.416 53.5334H30.4166H37.7166C38.3884 53.5335 38.9331 52.9891 38.9333 52.3173V52.3167V26.7667C38.9334 26.095 38.389 25.5502 37.7172 25.55ZM36.5 51.1H31.6333V27.9834H36.5V51.1Z" fill="#E2800D"/>
<path d="M49.884 20.6833H49.8834H42.5834C41.9116 20.6832 41.3669 21.2277 41.3667 21.8994V21.9V52.3167C41.3665 52.9884 41.911 53.5332 42.5828 53.5333H42.5834H49.8834C50.5551 53.5335 51.0999 52.989 51.1 52.3173V52.3167V21.9C51.1002 21.2283 50.5557 20.6835 49.884 20.6833ZM48.6667 51.1H43.8V23.1167H48.6667V51.1Z" fill="#E2800D"/>
<path d="M49.6445 12.1904L37.4778 14.6238C37.3221 14.6549 37.174 14.7164 37.0418 14.8044L26.3982 21.9H15.8166C15.5886 21.9 15.3652 21.9642 15.1721 22.0854L5.43872 28.1688L6.72793 30.2315L16.1653 24.3334H26.7666C27.0067 24.3332 27.2415 24.2622 27.4415 24.129L38.1914 16.962L50.1222 14.5762L49.6445 12.1904Z" fill="#E2800D"/>
</svg>
