<svg width="100" height="100" viewBox="0 0 100 100" fill="none" xmlns="http://www.w3.org/2000/svg">
<path d="M50.33 38.84C48.1228 38.84 45.9651 39.4945 44.1299 40.7208C42.2946 41.947 40.8642 43.69 40.0196 45.7292C39.1749 47.7684 38.9539 50.0123 39.3845 52.1772C39.8151 54.342 40.878 56.3305 42.4387 57.8913C43.9995 59.452 45.988 60.5149 48.1528 60.9455C50.3177 61.3761 52.5616 61.1551 54.6008 60.3105C56.64 59.4658 58.383 58.0354 59.6092 56.2001C60.8355 54.3649 61.49 52.2072 61.49 50C61.4848 47.0418 60.3073 44.2063 58.2155 42.1145C56.1238 40.0227 53.2882 38.8453 50.33 38.84ZM50.33 57.66C48.8155 57.658 47.3355 57.2071 46.0771 56.3642C44.8187 55.5213 43.8385 54.3243 43.2603 52.9244C42.682 51.5245 42.5318 49.9847 42.8285 48.4995C43.1251 47.0142 43.8555 45.6503 44.9271 44.58C45.9988 43.5097 47.3637 42.7812 48.8493 42.4864C50.3349 42.1917 51.8746 42.344 53.2737 42.924C54.6728 43.5041 55.8685 44.4859 56.7098 45.7453C57.551 47.0048 58 48.4854 58 50C57.9974 52.0324 57.1881 53.9808 55.75 55.417C54.3119 56.8533 52.3625 57.66 50.33 57.66Z" fill="black"/>
<path d="M80.22 57.14C80.1597 56.9181 80.0562 56.7103 79.9155 56.5284C79.7748 56.3465 79.5997 56.1941 79.4 56.08L74.06 53C74.1871 52.0051 74.2506 51.003 74.25 50C74.2446 48.8855 74.1611 47.7728 74 46.67L78.77 43.92C79.1697 43.686 79.4611 43.3038 79.5809 42.8564C79.7007 42.409 79.6393 41.9324 79.41 41.53L71.88 28.53C71.6479 28.1283 71.2657 27.8352 70.8175 27.7152C70.3694 27.5952 69.8919 27.6581 69.49 27.89L64.62 30.69C62.9534 29.4184 61.128 28.3695 59.19 27.57V21.77C59.1927 21.5393 59.1497 21.3104 59.0636 21.0965C58.9774 20.8825 58.8498 20.6877 58.6881 20.5232C58.5264 20.3587 58.3338 20.2278 58.1213 20.138C57.9088 20.0482 57.6807 20.0013 57.45 20H42.39C41.9259 20 41.4808 20.1844 41.1526 20.5126C40.8244 20.8408 40.64 21.2859 40.64 21.75V27.51C38.7278 28.2966 36.926 29.3286 35.28 30.58L30.5 27.85C30.0982 27.6181 29.6207 27.5552 29.1725 27.6752C28.7244 27.7952 28.3422 28.0883 28.11 28.49L20.58 41.49C20.3508 41.8924 20.2894 42.369 20.4092 42.8164C20.529 43.2638 20.8203 43.646 21.22 43.88L25.84 46.54C25.6689 47.6854 25.582 48.8419 25.58 50C25.5813 51.0302 25.6515 52.0592 25.79 53.08L20.6 56.08C20.4035 56.1973 20.232 56.3522 20.0954 56.5359C19.9588 56.7196 19.8598 56.9285 19.8041 57.1505C19.7483 57.3725 19.737 57.6033 19.7706 57.8298C19.8042 58.0562 19.8822 58.2738 20 58.47L27.53 71.47C27.6443 71.6685 27.7969 71.8422 27.9788 71.9813C28.1608 72.1203 28.3685 72.2219 28.59 72.28C29.0384 72.401 29.5165 72.3399 29.92 72.11L35.04 69.11C36.7644 70.4514 38.6614 71.5546 40.68 72.39V78.15C40.6666 78.3848 40.7005 78.6198 40.7799 78.8412C40.8593 79.0625 40.9824 79.2656 41.142 79.4382C41.3017 79.6109 41.4944 79.7497 41.7089 79.8462C41.9233 79.9427 42.1549 79.995 42.39 80H57.45C57.9142 80 58.3593 79.8156 58.6875 79.4874C59.0157 79.1592 59.2 78.7141 59.2 78.25V72.48C61.2458 71.6303 63.1667 70.5067 64.91 69.14L70.12 72.14C70.5219 72.3719 70.9994 72.4348 71.4475 72.3148C71.8957 72.1948 72.2779 71.9017 72.51 71.5L80.04 58.5C80.1596 58.2969 80.2371 58.0719 80.268 57.8383C80.2989 57.6046 80.2826 57.3672 80.22 57.14ZM70.36 68.24L65.61 65.5C65.2965 65.3238 64.9363 65.2484 64.5785 65.2842C64.2206 65.32 63.8825 65.4652 63.61 65.7C61.6333 67.4184 59.35 68.7483 56.88 69.62C56.5409 69.743 56.2477 69.9672 56.0402 70.2624C55.8328 70.5575 55.721 70.9092 55.72 71.27V76.48H44.14V71.27C44.1406 70.9116 44.0318 70.5616 43.828 70.2667C43.6243 69.9719 43.3355 69.7463 43 69.62C40.5527 68.7573 38.2898 67.4409 36.33 65.74C36.0568 65.5057 35.7173 65.3624 35.3588 65.3301C35.0003 65.2979 34.6407 65.3782 34.33 65.56L29.67 68.24L23.9 58.24L28.61 55.53C28.9235 55.3508 29.1731 55.078 29.3237 54.7498C29.4744 54.4216 29.5185 54.0545 29.45 53.7C29.2195 52.4798 29.0957 51.2417 29.08 50C29.0871 48.6566 29.2245 47.317 29.49 46C29.5575 45.6416 29.512 45.271 29.3597 44.9396C29.2074 44.6082 28.9559 44.3323 28.64 44.15L24.49 41.75L30.27 31.75L34.56 34.23C34.8706 34.4103 35.2291 34.4907 35.5868 34.4602C35.9446 34.4298 36.2844 34.2901 36.56 34.06C38.4673 32.4551 40.649 31.2083 43 30.38C43.3411 30.2587 43.6364 30.0351 43.8457 29.7399C44.0551 29.4446 44.1684 29.092 44.17 28.73V23.52H55.7V28.73C55.6995 29.0911 55.8107 29.4435 56.0184 29.7389C56.2261 30.0343 56.5201 30.2583 56.86 30.38C59.2291 31.2185 61.4251 32.4825 63.34 34.11C63.6157 34.3401 63.9555 34.4798 64.3132 34.5102C64.671 34.5407 65.0295 34.4603 65.34 34.28L69.73 31.75L75.51 41.75L71.22 44.23C70.906 44.4117 70.6557 44.686 70.5036 45.0154C70.3514 45.3447 70.3048 45.7131 70.37 46.07C70.6206 47.365 70.7479 48.6809 70.75 50C70.7505 51.2138 70.6435 52.4252 70.43 53.62C70.3713 53.9723 70.4212 54.3341 70.573 54.6574C70.7248 54.9807 70.9714 55.2502 71.28 55.43L76.13 58.23L70.36 68.24Z" fill="black"/>
</svg>
