<svg width="72" height="75" viewBox="0 0 72 75" fill="none" xmlns="http://www.w3.org/2000/svg">
<g clip-path="url(#clip0_32_28)">
<path fill-rule="evenodd" clip-rule="evenodd" d="M29.8309 9.38487C31.23 7.45505 33.3794 5.98505 35.9997 5.98505C38.6198 5.98505 40.7695 7.45505 42.1686 9.38487C43.3607 11.0297 44.109 13.1163 44.3052 15.3616C48.0736 18.4788 51.3108 23.4409 53.6533 28.927C56.2263 34.9532 57.8569 41.9287 57.8569 48.4731C57.8569 65.0592 47.2585 75 35.9997 75C24.7407 75 14.1426 65.0592 14.1426 48.4731C14.1426 41.9287 15.7731 34.9532 18.3461 28.927C20.6884 23.4409 23.9258 18.4788 27.6943 15.3616C27.8905 13.1163 28.6385 11.0297 29.8309 9.38487ZM33.9863 12.4325C33.293 13.3886 32.7854 14.8366 32.7854 16.5515L32.7859 16.6451L32.8003 17.9931L31.7101 18.7769C28.5685 21.0363 25.4329 25.4377 23.0716 30.9678C20.7311 36.4493 19.2854 42.7314 19.2854 48.4731C19.2854 62.7388 28.0864 69.8276 35.9997 69.8276C43.9128 69.8276 52.714 62.7388 52.714 48.4731C52.714 42.7314 51.2681 36.4493 48.9276 30.9678C46.5665 25.4377 43.4306 21.0363 40.2891 18.7769L39.1988 17.9931L39.2135 16.6451L39.214 16.5515C39.214 14.8366 38.7064 13.3886 38.0129 12.4325C37.3181 11.474 36.575 11.1575 35.9997 11.1575C35.4245 11.1575 34.6811 11.474 33.9863 12.4325Z" fill="black"/>
<path fill-rule="evenodd" clip-rule="evenodd" d="M47.3858 0.731902C48.4041 -0.263736 50.032 -0.240666 51.022 0.783368L58.7363 8.76363C59.6289 9.68716 59.7099 11.1303 58.9266 12.1487C57.013 14.6372 55.1646 16.4793 52.822 17.7745C50.4993 19.0585 47.8998 19.6878 44.6932 20.1132C43.2851 20.3002 41.9932 19.3037 41.8076 17.8875C41.6217 16.4716 42.6124 15.172 44.0206 14.9853C46.9733 14.5935 48.8402 14.0734 50.3447 13.2416C51.3892 12.6641 52.362 11.8792 53.4351 10.6999L47.3346 4.38906C46.3446 3.36492 46.3675 1.72759 47.3858 0.731902Z" fill="black"/>
<path fill-rule="evenodd" clip-rule="evenodd" d="M64.6568 12.1801C65.9618 12.7434 66.5655 14.2641 66.0055 15.5766L62.534 23.7105C62.2592 24.3544 61.7364 24.8585 61.0853 25.1075L51.0567 28.9442C49.7294 29.4521 48.2441 28.7815 47.7391 27.4465C47.234 26.1115 47.9008 24.6177 49.2282 24.1098L58.238 20.6629L61.2794 13.5366C61.8398 12.2241 63.3518 11.6166 64.6568 12.1801Z" fill="black"/>
<path fill-rule="evenodd" clip-rule="evenodd" d="M70.8562 22.3809C72.0373 23.1741 72.3554 24.7801 71.5667 25.968L66.1667 34.1016C65.87 34.5487 65.4421 34.8917 64.9425 35.0828L54.9139 38.9194C53.5865 39.4271 52.1013 38.7568 51.5962 37.4218C51.0912 36.0868 51.758 34.5927 53.0854 34.085L62.3461 30.5422L67.2897 23.0957C68.0783 21.9076 69.6752 21.5877 70.8562 22.3809Z" fill="black"/>
<path fill-rule="evenodd" clip-rule="evenodd" d="M53.5168 41.5897C54.01 40.2503 55.4893 39.5665 56.8211 40.0625L55.9283 42.4876C56.8211 40.0625 56.8211 40.0625 56.8211 40.0625L56.8273 40.0649L56.837 40.0685L56.8669 40.0799L56.9669 40.1184C57.0507 40.151 57.1682 40.1978 57.3151 40.2581C57.6079 40.3783 58.0186 40.5534 58.5085 40.7797C59.4812 41.2294 60.7978 41.8954 62.1321 42.7512C63.45 43.5963 64.8877 44.6913 66.0209 46.0279C67.1503 47.3598 68.1426 49.1321 68.1426 51.266C68.1426 54.3813 67.0158 57.8093 66.0258 60.2673C65.5143 61.5368 65.0044 62.6313 64.6218 63.41C64.4299 63.8003 64.269 64.1135 64.154 64.3325C64.0964 64.4422 64.0504 64.5283 64.0178 64.5888L63.9792 64.6605L63.9676 64.6811L63.964 64.6879L63.9627 64.6902C63.9627 64.6902 63.9617 64.692 61.714 63.4359L63.9627 64.6902C63.2731 65.9388 61.7065 66.3904 60.4651 65.6968C59.2241 65.0034 58.7767 63.4297 59.4653 62.1813L59.471 62.1712L59.4967 62.1237C59.5206 62.0794 59.5574 62.0106 59.6054 61.9191C59.7014 61.736 59.8417 61.4631 60.0115 61.1179C60.3519 60.425 60.8063 59.4495 61.2591 58.3253C62.1977 55.9949 62.9997 53.3378 62.9997 51.266C62.9997 50.8064 62.7865 50.1847 62.1077 49.3843C61.4332 48.5885 60.4599 47.8131 59.3671 47.1123C58.2907 46.4218 57.1965 45.8657 56.3613 45.4799C55.9471 45.2885 55.6046 45.1426 55.37 45.0464C55.253 44.9983 55.1635 44.9626 55.1062 44.9404L55.0447 44.9166L55.0352 44.913C53.7043 44.4167 53.0239 42.9288 53.5168 41.5897Z" fill="black"/>
<path fill-rule="evenodd" clip-rule="evenodd" d="M24.6135 0.731902C23.5954 -0.263736 21.9675 -0.240666 20.9775 0.783368L13.2632 8.76363C12.3706 9.68716 12.2894 11.1303 13.0729 12.1487C14.9866 14.6372 16.8346 16.4793 19.1772 17.7745C21.5 19.0585 24.0997 19.6878 27.3063 20.1132C28.7141 20.3002 30.006 19.3037 30.1919 17.8875C30.3776 16.4716 29.3868 15.172 27.979 14.9853C25.0259 14.5935 23.1591 14.0734 21.6545 13.2416C20.61 12.6641 19.6372 11.8792 18.5642 10.6999L24.6649 4.38906C25.6546 3.36492 25.6318 1.72759 24.6135 0.731902Z" fill="black"/>
<path fill-rule="evenodd" clip-rule="evenodd" d="M7.34247 12.1801C6.03747 12.7434 5.4337 14.2641 5.99376 15.5766L9.46518 23.7105C9.74007 24.3544 10.2628 24.8585 10.9139 25.1075L20.9425 28.9442C22.2699 29.4521 23.7554 28.7815 24.2602 27.4465C24.7652 26.1115 24.0984 24.6177 22.771 24.1098L13.7613 20.6629L10.7198 13.5366C10.1595 12.2241 8.64747 11.6166 7.34247 12.1801Z" fill="black"/>
<path fill-rule="evenodd" clip-rule="evenodd" d="M1.14325 22.3809C-0.0379386 23.1741 -0.356077 24.7801 0.432503 25.968L5.8325 34.1016C6.12925 34.5487 6.55739 34.8917 7.05676 35.0828L17.0853 38.9194C18.4127 39.4271 19.8982 38.7568 20.403 37.4218C20.908 36.0868 20.2412 34.5927 18.9139 34.085L9.65339 30.5422L4.70956 23.0957C3.9209 21.9076 2.3243 21.5877 1.14325 22.3809Z" fill="black"/>
<path fill-rule="evenodd" clip-rule="evenodd" d="M18.4824 41.5897C17.9894 40.2503 16.5098 39.5665 15.1781 40.0625L16.0712 42.4876C15.1781 40.0625 15.1781 40.0625 15.1781 40.0625L15.1719 40.0649L15.1622 40.0685L15.1323 40.0799L15.0323 40.1184C14.9485 40.151 14.831 40.1978 14.6844 40.2581C14.3915 40.3783 13.9806 40.5534 13.4907 40.7797C12.518 41.2294 11.2014 41.8954 9.86707 42.7512C8.54922 43.5963 7.11179 44.6913 5.9783 46.0279C4.84893 47.3598 3.85687 49.1321 3.85687 51.266C3.85687 54.3813 4.98342 57.8093 5.97342 60.2673C6.48487 61.5368 6.99479 62.6313 7.37742 63.41C7.56925 63.8003 7.73047 64.1135 7.84516 64.3325C7.90276 64.4422 7.94879 64.5283 7.98144 64.5888L8.02027 64.6605L8.03159 64.6811L8.03519 64.6879L8.03647 64.6902C8.03647 64.6902 8.0375 64.692 10.2854 63.4359L8.03647 64.6902C8.72613 65.9388 10.2926 66.3904 11.5341 65.6968C12.7751 65.0034 13.2225 63.4297 12.5339 62.1813L12.5285 62.1712L12.5025 62.1237C12.4789 62.0794 12.4418 62.0106 12.394 61.9191C12.2978 61.736 12.1577 61.4631 11.9877 61.1179C11.6473 60.425 11.1929 59.4495 10.7401 58.3253C9.8015 55.9949 8.99973 53.3378 8.99973 51.266C8.99973 50.8064 9.21264 50.1847 9.8915 49.3843C10.5662 48.5885 11.5393 47.8131 12.6321 47.1123C13.7085 46.4218 14.8027 45.8657 15.6379 45.4799C16.0521 45.2885 16.3946 45.1426 16.6292 45.0464C16.7462 44.9983 16.8356 44.9626 16.8932 44.9404L16.9544 44.9166L16.964 44.913C18.2952 44.4167 18.9756 42.9288 18.4824 41.5897Z" fill="black"/>
</g>
<defs>
<clipPath id="clip0_32_28">
<rect width="72" height="75" fill="white"/>
</clipPath>
</defs>
</svg>
