<svg width="21" height="22" viewBox="0 0 21 22" fill="none" xmlns="http://www.w3.org/2000/svg">
<path d="M20.9055 17.5363L20.801 17.2063C20.5534 16.4353 19.742 15.6312 18.9966 15.4193L16.2376 14.6296C15.4894 14.4163 14.4222 14.7031 13.8748 15.2767L12.8762 16.3229C9.24743 15.2955 6.40187 12.3138 5.42263 8.51218L6.42119 7.46588C6.96859 6.8923 7.24225 5.77549 7.0387 4.99154L6.28638 2.09925C6.08283 1.31672 5.31401 0.466503 4.5796 0.209965L4.26466 0.0990127C3.52884 -0.157525 2.47945 0.101918 1.93209 0.67545L0.438451 2.24193C0.171613 2.52005 0.00107175 3.31553 0.00107175 3.31844C-0.051169 8.28733 1.80829 13.0746 5.1627 16.5895C8.50888 20.0956 13.0606 22.0411 17.789 21.9993C17.8137 21.9993 18.5949 21.8235 18.8618 21.5453L20.3554 19.9803C20.9028 19.4068 21.1503 18.3073 20.9055 17.5363Z" fill="black"/>
</svg>
