<svg width="84" height="84" viewBox="0 0 84 84" fill="none" xmlns="http://www.w3.org/2000/svg">
<g clip-path="url(#clip0_13_322)">
<path d="M33.5672 23.6578C32.7961 22.4274 31.1719 22.0664 29.9414 22.8375C28.7109 23.6086 28.35 25.2328 29.1211 26.4633L39.7852 43.411C40.1953 44.0672 40.8844 44.5102 41.6719 44.6086C41.7867 44.625 41.9016 44.625 42.0164 44.625C42.6727 44.625 43.3125 44.3789 43.8047 43.9196L78.3727 11.8946C79.4391 10.9102 79.5047 9.25315 78.5203 8.18675C77.5359 7.12034 75.8789 7.05472 74.8125 8.03909L42.5414 37.9313L33.5672 23.6578Z" fill="#C9214A"/>
<path d="M78.0445 20.4422C77.3063 19.1953 75.682 18.8016 74.4352 19.5398C73.1883 20.2781 72.7945 21.9023 73.5328 23.1492C76.568 28.2188 78.3398 33.9609 78.6844 39.8836C78.2086 39.4242 77.5687 39.1453 76.8633 39.1453H76.8141C75.3703 39.1453 74.1891 40.3266 74.1891 41.7703V41.8195C74.1891 43.2633 75.3703 44.4445 76.8141 44.4445H76.8633C77.5852 44.4445 78.2414 44.1492 78.7172 43.6898C77.8805 62.475 62.8687 77.6344 44.1328 78.7172C44.5922 78.2414 44.8711 77.6016 44.8711 76.8961V76.8469C44.8711 75.4031 43.6898 74.2219 42.2461 74.2219H42.1969C40.7531 74.2219 39.5719 75.4031 39.5719 76.8469V76.8961C39.5719 77.618 39.8672 78.2742 40.3266 78.75C21.5578 77.8641 6.38203 62.8523 5.31563 44.1328C5.79141 44.5922 6.43125 44.8711 7.13672 44.8711H7.18594C8.62969 44.8711 9.81094 43.6898 9.81094 42.2461V42.1969C9.81094 40.7531 8.62969 39.5719 7.18594 39.5719H7.13672C6.41484 39.5719 5.75859 39.8672 5.28281 40.3266C6.13594 21.5578 21.1477 6.38203 39.8672 5.31563C39.4078 5.79141 39.1289 6.43125 39.1289 7.13672V7.18594C39.1289 8.62969 40.3102 9.81094 41.7539 9.81094H41.8031C43.2469 9.81094 44.4281 8.62969 44.4281 7.18594V7.13672C44.4281 6.41484 44.1328 5.75859 43.6734 5.28281C50.7281 5.59453 57.4547 7.89141 63.2297 11.993C64.4109 12.8297 66.0516 12.5508 66.8883 11.3695C67.725 10.1883 67.4461 8.54766 66.2648 7.71094C59.1445 2.67422 50.7445 0 42 0C30.7781 0 20.2289 4.36406 12.3047 12.3047C4.36406 20.2289 0 30.7781 0 42C0 53.2219 4.36406 63.7711 12.3047 71.6953C20.2453 79.6359 30.7781 84 42 84C53.2219 84 63.7711 79.6359 71.6953 71.6953C79.6359 63.7547 84 53.2219 84 42C84 34.3875 81.9328 26.9391 78.0445 20.4422Z" fill="#C9214A"/>
</g>
<defs>
<clipPath id="clip0_13_322">
<rect width="84" height="84" fill="white"/>
</clipPath>
</defs>
</svg>
